<svg width="25" height="25" viewBox="0 0 25 25" fill="none" xmlns="http://www.w3.org/2000/svg">
<path fill-rule="evenodd" clip-rule="evenodd" d="M24.02 12.7728C24.02 11.9219 23.9436 11.1037 23.8018 10.3182H12.5V14.9601H18.9582C18.68 16.4601 17.8345 17.731 16.5636 18.5819V21.5928H20.4418C22.7109 19.5037 24.02 16.4273 24.02 12.7728Z" fill="#4285F4"/>
<path fill-rule="evenodd" clip-rule="evenodd" d="M12.4999 24.4998C15.7399 24.4998 18.4562 23.4252 20.4417 21.5925L16.5635 18.5816C15.489 19.3016 14.1144 19.7271 12.4999 19.7271C9.37443 19.7271 6.72897 17.6161 5.78534 14.7798H1.77625V17.8889C3.75079 21.8107 7.80897 24.4998 12.4999 24.4998Z" fill="#34A853"/>
<path fill-rule="evenodd" clip-rule="evenodd" d="M5.78545 14.7801C5.54545 14.0601 5.40909 13.291 5.40909 12.5001C5.40909 11.7091 5.54545 10.9401 5.78545 10.2201V7.11096H1.77636C0.963636 8.73096 0.5 10.5637 0.5 12.5001C0.5 14.4364 0.963636 16.2691 1.77636 17.8891L5.78545 14.7801Z" fill="#FBBC05"/>
<path fill-rule="evenodd" clip-rule="evenodd" d="M12.4999 5.27273C14.2617 5.27273 15.8435 5.87818 17.0872 7.06727L20.529 3.62545C18.4508 1.68909 15.7344 0.5 12.4999 0.5C7.80897 0.5 3.75079 3.18909 1.77625 7.11091L5.78534 10.22C6.72897 7.38364 9.37443 5.27273 12.4999 5.27273Z" fill="#EA4335"/>
</svg>
