<svg width="375" height="300" viewBox="0 0 375 300" fill="none" xmlns="http://www.w3.org/2000/svg">
<path d="M346.698 99.888C339.42 72.288 323.25 51.684 300.54 41.922C277.83 32.16 245.34 41.82 229.626 60.888C218.13 74.832 214.59 94.398 201.732 107.088C189.978 118.692 172.404 122.406 155.892 122.022C139.38 121.638 123.156 117.72 106.692 116.43C90.228 115.14 72.666 116.796 59.166 126.312C41.448 138.804 30.894 169.29 32.928 190.872C35.736 220.644 55.584 250.77 82.86 257.196L261.66 259.704C285.132 259.104 310.86 236.76 323.274 215.172C329.874 203.628 335.736 200.964 341.916 179.898C351.966 145.626 353.004 123.792 346.698 99.888Z" fill="#EBEBEB"/>
<path d="M62.0161 274.674C70.1041 269.064 71.9701 258.612 71.6821 249.21C71.6341 247.644 71.8141 245.988 71.0821 244.608C70.3501 243.228 68.6041 242.286 67.1941 242.94C66.0301 243.486 65.5141 244.836 64.8601 245.94C63.9851 247.433 62.7059 248.647 61.1701 249.444C60.1681 249.954 58.9321 250.266 57.9421 249.72C56.5921 248.97 56.4421 247.098 56.4541 245.52C56.4861 242.612 56.5141 239.704 56.5381 236.796C56.6388 235.25 56.491 233.699 56.1001 232.2C55.6201 230.718 54.5521 229.338 53.0641 228.912C51.5761 228.486 49.7461 229.344 49.4281 230.868C49.365 231.514 49.3469 232.164 49.3741 232.812C49.3827 233.136 49.2957 233.455 49.1238 233.729C48.952 234.003 48.703 234.221 48.408 234.354C47.808 234.534 47.1601 234.09 46.6981 233.634C45.0901 232.05 44.004 230.034 42.99 227.994C41.976 225.954 40.9921 223.902 39.5341 222.18C38.0761 220.458 36.0601 219.084 33.8281 218.952C31.5961 218.82 29.2081 220.188 28.6321 222.378C28.0561 224.568 29.3341 226.818 30.7261 228.6C32.7793 231.249 35.2043 233.587 37.9261 235.542C38.4546 235.84 38.8748 236.298 39.1261 236.85C39.4561 237.894 38.4721 238.92 37.4401 239.25C36.2761 239.634 35.0401 239.508 33.7981 239.646C32.5561 239.784 31.2601 240.318 30.7981 241.446C30.1561 243.042 31.4821 244.716 32.7901 245.814C35.4123 248.02 38.3963 249.755 41.6101 250.944C42.7905 251.277 43.9006 251.822 44.8861 252.552C45.8101 253.362 46.3621 254.766 45.7981 255.864C45.2341 256.962 43.8001 257.31 42.5941 257.064C41.3881 256.818 40.3201 256.182 39.1741 255.744C37.0321 254.928 34.2601 255.066 32.8801 256.914C32.4593 257.551 32.1916 258.277 32.0979 259.035C32.0042 259.792 32.0871 260.562 32.3401 261.282C32.8581 262.714 33.6578 264.028 34.6921 265.146C38.0776 269.241 42.49 272.363 47.4781 274.194C52.4461 275.94 57.0781 276.42 62.0041 274.632" fill="#F77C00"/>
<path d="M61.5 277.32C61.176 273.594 61.008 273.516 59.628 268.77C58.0875 263.642 56.2525 258.608 54.132 253.692C53.572 252.384 53.024 251.092 52.488 249.816C51.942 248.544 51.408 247.284 50.802 246.084C49.6351 243.786 48.3411 241.554 46.926 239.4C45.6 237.324 44.262 235.41 42.996 233.622C41.73 231.834 40.518 230.202 39.348 228.756C37.5196 226.466 35.5134 224.323 33.348 222.348C32.58 221.646 31.968 221.148 31.548 220.776L31.068 220.386C30.96 220.296 30.9 220.254 30.894 220.26C30.9434 220.313 30.9955 220.363 31.05 220.41L31.512 220.824C31.92 221.184 32.52 221.718 33.276 222.432C35.412 224.433 37.3955 226.591 39.21 228.888C40.368 230.334 41.568 231.978 42.81 233.766C44.052 235.554 45.39 237.474 46.716 239.544C48.111 241.701 49.3869 243.932 50.538 246.228C51.138 247.428 51.672 248.676 52.212 249.948C52.752 251.22 53.298 252.516 53.856 253.824C55.971 258.731 57.8099 263.753 59.364 268.866C60.75 273.594 60.936 273.666 61.29 277.356" fill="#263238"/>
<path d="M50.7001 246.072C50.7739 245.856 50.8242 245.633 50.8501 245.406C50.9341 244.974 51.0361 244.35 51.1501 243.57C51.3721 242.016 51.6121 239.862 51.8701 237.486C52.1281 235.11 52.392 232.962 52.638 231.414C52.764 230.64 52.8661 230.016 52.9501 229.584C53.0055 229.362 53.0337 229.135 53.0341 228.906C52.9486 229.118 52.8824 229.337 52.8361 229.56C52.7281 229.986 52.59 230.61 52.44 231.36C52.14 232.902 51.8401 235.056 51.5821 237.432C51.3241 239.808 51.1141 241.902 50.9461 243.528C50.8681 244.26 50.7961 244.878 50.7421 245.37C50.6972 245.601 50.6831 245.837 50.7001 246.072Z" fill="#263238"/>
<path d="M30.6481 242.25C30.9121 242.31 31.1814 242.344 31.4521 242.352C31.9621 242.4 32.7121 242.46 33.6301 242.574C35.4661 242.778 37.9921 243.174 40.7641 243.684C43.5361 244.194 46.0201 244.812 47.8081 245.292C48.7021 245.526 49.4221 245.736 49.9201 245.892C50.1763 245.978 50.4392 246.042 50.7061 246.084C50.4653 245.961 50.2144 245.858 49.9561 245.778C49.4641 245.604 48.7561 245.364 47.8621 245.106C46.0621 244.572 43.5961 243.948 40.8181 243.408C38.4376 242.941 36.0343 242.599 33.6181 242.382C32.6941 242.298 31.9441 242.262 31.4281 242.25C31.1686 242.227 30.9076 242.227 30.6481 242.25Z" fill="#263238"/>
<path d="M59.364 268.404C59.4226 268.329 59.471 268.246 59.508 268.158C59.598 267.96 59.712 267.72 59.85 267.432C60.15 266.802 60.552 265.878 61.05 264.732C62.022 262.434 63.276 259.224 64.602 255.654C65.928 252.084 67.152 248.868 68.076 246.558L69.186 243.822C69.3 243.522 69.402 243.276 69.48 243.078C69.558 242.88 69.576 242.814 69.564 242.808C69.5082 242.884 69.4618 242.967 69.426 243.054L69.084 243.774C68.784 244.41 68.376 245.334 67.884 246.48C66.906 248.772 65.658 251.988 64.332 255.552C63.006 259.116 61.782 262.338 60.852 264.654C60.402 265.776 60.024 266.7 59.748 267.384C59.628 267.684 59.532 267.93 59.454 268.134C59.4147 268.221 59.3846 268.311 59.364 268.404Z" fill="#263238"/>
<path d="M32.7301 259.716C32.8139 259.761 32.9025 259.798 32.9941 259.824L33.7681 260.088L36.6241 261.024C39.0241 261.81 42.3421 262.944 46.0021 264.192C49.6621 265.44 52.9921 266.55 55.4161 267.288C56.6161 267.66 57.6121 267.948 58.2961 268.134L59.0881 268.35C59.1783 268.376 59.2707 268.394 59.3641 268.404C59.3641 268.404 59.2801 268.356 59.1001 268.29L58.3321 268.032L55.5001 267.096C53.1001 266.304 49.7821 265.176 46.1161 263.922C42.4501 262.668 39.1321 261.564 36.7081 260.826C35.5081 260.454 34.5121 260.166 33.8281 259.98L33.0361 259.77C32.9385 259.733 32.8346 259.714 32.7301 259.716Z" fill="#263238"/>
<path d="M216.329 277.314H132.827C122.741 277.272 114.227 268.668 114.257 258.576L115.145 48.27C115.154 45.8697 115.637 43.4948 116.564 41.2811C117.492 39.0673 118.847 37.058 120.551 35.368C122.256 33.6779 124.276 32.3404 126.498 31.4317C128.72 30.523 131.099 30.0609 133.499 30.072L217.385 30.462C219.784 30.4722 222.157 30.955 224.37 31.8826C226.582 32.8103 228.59 34.1648 230.279 35.8686C231.968 37.5725 233.304 39.5924 234.212 41.8129C235.12 44.0334 235.582 46.411 235.571 48.81L234.683 259.116C234.673 261.516 234.191 263.891 233.264 266.105C232.336 268.319 230.981 270.328 229.277 272.018C227.572 273.708 225.551 275.046 223.33 275.954C221.108 276.863 218.729 277.325 216.329 277.314Z" fill="#263238"/>
<path d="M217.271 38.448L201.005 38.4C200.475 38.4094 199.951 38.5231 199.465 38.7348C198.979 38.9464 198.539 39.2518 198.171 39.6334C197.802 40.0151 197.513 40.4656 197.319 40.9592C197.124 41.4527 197.029 41.9797 197.039 42.51V45.462C197.057 46.5325 196.649 47.5664 195.906 48.3369C195.162 49.1073 194.143 49.5515 193.073 49.572L161.369 49.422C160.839 49.408 160.316 49.2896 159.832 49.0737C159.347 48.8577 158.91 48.5484 158.545 48.1633C158.18 47.7783 157.894 47.3251 157.705 46.8297C157.515 46.3343 157.425 45.8063 157.439 45.276V42.33C157.465 41.2583 157.065 40.2199 156.328 39.4418C155.59 38.6638 154.575 38.2094 153.503 38.178H147.785L133.547 38.112C131.866 38.1049 130.201 38.4289 128.645 39.0655C127.09 39.7021 125.675 40.6388 124.482 41.8222C123.288 43.0056 122.339 44.4125 121.69 45.9625C121.04 47.5125 120.702 49.1753 120.695 50.856L119.825 256.086C119.811 259.479 121.144 262.739 123.533 265.149C125.922 267.559 129.17 268.922 132.563 268.938L216.281 269.322C217.962 269.331 219.629 269.008 221.185 268.372C222.742 267.736 224.158 266.799 225.352 265.616C226.546 264.432 227.495 263.025 228.145 261.474C228.795 259.923 229.133 258.259 229.139 256.578L229.985 51.3C229.998 47.9114 228.667 44.6559 226.284 42.2469C223.9 39.8379 220.66 38.4718 217.271 38.448Z" fill="#F5F5F5"/>
<path d="M181.739 230.532C181.643 233.01 181.553 235.332 181.475 237.27H193.475L192.005 229.878L181.739 230.532Z" fill="#F5F5F5"/>
<path d="M132.863 233.622L132.965 237.27H180.275C180.353 235.218 180.443 232.95 180.533 230.61L132.863 233.622Z" fill="#F5F5F5"/>
<path d="M192.635 229.842L194.111 237.264H216.287L216.017 228.366L192.635 229.842Z" fill="#F5F5F5"/>
<path d="M182.939 126.048L187.133 101.742L176.153 100.926V126.048H182.939Z" fill="#F5F5F5"/>
<path d="M131.873 220.128L119.957 224.796L119.921 233.238L132.227 232.458L131.873 220.128Z" fill="#F5F5F5"/>
<path d="M131.819 218.232L131.171 195.594H131.159V187.608L120.107 188.778L119.963 222.864L131.813 218.22L131.819 218.232Z" fill="#F5F5F5"/>
<path d="M131.159 169.788L120.197 168.336L120.119 186.972L131.159 185.802V169.788Z" fill="#F5F5F5"/>
<path d="M212.873 187.944L212.411 194.436L199.463 195.828L200.465 200.964L215.159 199.854L214.943 192.492L216.113 187.62L212.873 187.944Z" fill="#F5F5F5"/>
<path d="M189.533 201.786L199.859 201.006L197.609 189.486L188.597 190.398L189.533 201.786Z" fill="#F5F5F5"/>
<path d="M189.635 202.986L190.421 212.592L191.819 225.768L192.395 228.654L215.981 227.166L215.195 201.054L189.635 202.986Z" fill="#F5F5F5"/>
<path d="M149.039 157.62L149.945 159.174L131.759 169.8V194.97L150.959 193.608L187.985 189.858L186.629 173.364L151.283 168.744L151.517 166.944L186.479 171.51L184.187 143.592L149.579 146.916L149.465 145.716L184.085 142.392L182.885 127.824H149.585L120.359 133.14L120.215 166.5L131.273 168L149.039 157.62ZM133.619 192.546C133.619 192.546 133.757 171.798 133.619 171.024L148.463 163.128L150.389 191.49L133.619 192.546Z" fill="#F5F5F5"/>
<path d="M211.655 188.07L198.209 189.426L199.229 194.646L211.283 193.35L211.655 188.07Z" fill="#F5F5F5"/>
<path d="M181.907 226.086C181.865 227.178 181.823 228.258 181.787 229.326L191.795 228.69L191.279 226.11L181.907 226.086Z" fill="#F5F5F5"/>
<path d="M160.349 126.048L162.113 118.05H175.553V100.884L133.535 97.77V113.892L120.413 116.862L120.353 131.334L149.411 126.048H160.349Z" fill="#F5F5F5"/>
<path d="M188.387 78.27L188.027 76.8L204.071 70.452L193.637 49.5C193.439 49.5321 193.238 49.5482 193.037 49.548L175.307 49.464L175.787 78.786L188.387 78.27Z" fill="#F5F5F5"/>
<path d="M212.699 67.032V38.43L201.005 38.4C200.475 38.4094 199.951 38.5231 199.465 38.7348C198.979 38.9464 198.539 39.2518 198.171 39.6334C197.802 40.0151 197.513 40.4656 197.319 40.9591C197.124 41.4527 197.029 41.9797 197.039 42.51V45.462C197.039 46.1211 196.883 46.7709 196.585 47.3588C196.287 47.9467 195.855 48.4562 195.323 48.846L205.763 69.81L212.699 67.032Z" fill="#F5F5F5"/>
<path d="M152.387 68.262L151.031 38.142H147.785L135.095 38.082L129.695 65.016L152.387 68.262ZM149.495 41.196L149.927 65.724L133.061 63.258L136.751 41.196H149.495Z" fill="#F5F5F5"/>
<path d="M152.999 68.352V68.604C152.999 70.956 153.071 75.204 153.107 79.71L175.205 78.81L174.725 49.464L161.351 49.398C160.821 49.384 160.298 49.2656 159.814 49.0497C159.329 48.8337 158.892 48.5244 158.527 48.1393C158.162 47.7543 157.876 47.3011 157.687 46.8057C157.497 46.3103 157.407 45.7823 157.421 45.252V42.306C157.447 41.2343 157.047 40.1959 156.31 39.4178C155.572 38.6398 154.557 38.1854 153.485 38.154H151.619L152.975 68.352H152.999Z" fill="#F5F5F5"/>
<path d="M127.907 64.746L133.259 38.076C129.916 38.1356 126.73 39.5013 124.382 41.8809C122.033 44.2605 120.71 47.4649 120.695 50.808L120.635 64.104L120.695 63.714L127.907 64.746Z" fill="#F5F5F5"/>
<path d="M131.735 97.638L120.497 96.804L120.419 115.014L131.735 112.452V97.638Z" fill="#F5F5F5"/>
<path d="M127.787 65.334L120.635 64.308L120.509 93.798L122.051 93.912L127.787 65.334Z" fill="#F5F5F5"/>
<path d="M150.485 217.884L150.671 194.214L131.765 195.552L132.437 218.742L150.485 217.884Z" fill="#F5F5F5"/>
<path d="M153.965 212.4L180.737 225.228C181.061 216.828 181.337 209.028 181.337 208.506L181.937 208.476L182.225 207.912C182.603 208.098 182.603 208.098 182.405 213.816C182.291 217.002 182.135 221.244 181.973 225.486H191.231L189.869 212.622L188.069 190.422L153.083 193.95L153.965 212.4Z" fill="#F5F5F5"/>
<path d="M219.599 173.136L219.293 170.01L187.199 173.352L188.549 189.798L216.263 187.002L219.599 173.136Z" fill="#F5F5F5"/>
<path d="M175.553 119.85H163.559L162.191 126.048H175.553V119.85Z" fill="#F5F5F5"/>
<path d="M214.643 121.944L184.613 119.868L183.413 126.96L184.679 142.356L216.347 139.308L214.643 121.944ZM185.717 126.948L187.331 122.472L213.413 124.122L214.919 136.926L186.599 140.286L185.717 126.948Z" fill="#F5F5F5"/>
<path d="M217.757 154.122L216.437 140.508L184.751 143.55L185.945 158.04L217.757 154.122Z" fill="#F5F5F5"/>
<path d="M132.263 233.664L119.969 234.438L119.921 233.64L119.903 237.264H132.365L132.263 233.664Z" fill="#F5F5F5"/>
<path d="M229.787 60.27L229.967 60.732L229.985 51.3C229.998 47.9073 228.663 44.6482 226.275 42.2385C223.887 39.8287 220.64 38.4655 217.247 38.448H213.257V66.816L229.787 60.27Z" fill="#F5F5F5"/>
<path d="M180.713 225.906L153.383 212.808L152.417 194.046L151.277 194.16L151.079 218.46L132.449 219.342V219.882L132.809 232.41L180.563 229.41C180.623 228.24 180.671 227.07 180.713 225.906ZM133.619 220.89L159.695 219.09L176.657 226.956L133.619 229.284V220.89Z" fill="#F5F5F5"/>
<path d="M222.017 91.8L223.139 85.17C213.335 81.672 212.657 71.448 212.687 68.37L206.291 70.902L215.921 90.24L222.017 91.8Z" fill="#F5F5F5"/>
<path d="M187.049 171.558L200.375 170.172L197.753 158.4L186.089 159.84L187.049 171.558Z" fill="#F5F5F5"/>
<path d="M214.685 101.94H189.797L187.733 101.784L184.919 118.086L214.463 120.126L213.779 113.04L216.689 102.576L214.685 101.94Z" fill="#F5F5F5"/>
<path d="M214.079 98.94L214.391 91.14L204.611 71.502L189.443 77.502L194.657 98.91L214.079 98.94ZM204.017 73.914L212.981 90.966L211.685 96.282L196.349 95.682L192.515 79.554L204.017 73.914Z" fill="#F5F5F5"/>
<path d="M217.949 192.804L218.411 208.086L229.193 207.48L229.229 208.08L218.429 208.686L218.975 226.974L229.175 226.326L229.247 227.526L219.011 228.174L219.287 237.264H229.223L229.439 186.276L219.275 187.302L217.949 192.804Z" fill="#F5F5F5"/>
<path d="M152.405 68.868L129.569 65.592L123.857 94.044L152.507 96.168C152.621 91.8 152.519 78.348 152.405 68.868Z" fill="#F5F5F5"/>
<path d="M189.965 98.94H193.421L188.531 78.864L175.823 79.386L176.129 97.914L189.965 98.94Z" fill="#F5F5F5"/>
<path d="M153.089 96.21L175.523 97.872L175.223 79.41L153.119 80.31C153.185 86.556 153.185 93.216 153.089 96.21Z" fill="#F5F5F5"/>
<path d="M217.931 155.916L198.347 158.328L200.981 170.106L219.119 168.222L217.931 155.916Z" fill="#F5F5F5"/>
<path d="M223.241 84.54L224.495 77.1L229.895 77.52L229.967 61.494L213.293 68.094C212.951 79.368 220.037 83.334 223.241 84.54Z" fill="#F5F5F5"/>
<path d="M216.821 113.304L217.499 120.336L229.715 121.182L229.775 106.704L219.551 103.476L216.821 113.304Z" fill="#F5F5F5"/>
<path d="M222.629 173.346L219.425 186.684L229.439 185.67L229.499 171.684C226.427 170.874 223.745 170.214 222.299 169.938L222.629 173.346Z" fill="#F5F5F5"/>
<path d="M215.873 99.168L229.787 103.566L229.823 95.652L216.155 92.118L215.873 99.168Z" fill="#F5F5F5"/>
<path d="M222.125 168.108C223.247 168.276 225.371 168.708 229.505 169.818L229.637 139.218L219.437 140.202L222.125 168.108Z" fill="#F5F5F5"/>
<path d="M219.311 139.026L229.643 138.03L229.703 122.988L217.673 122.154L219.311 139.026Z" fill="#F5F5F5"/>
<path d="M224.393 84.918C226.19 85.4753 228.015 85.9419 229.859 86.316V78.72L225.461 78.378L224.393 84.918Z" fill="#F5F5F5"/>
<path d="M223.187 92.076L229.829 93.792L229.859 86.934C228.137 86.586 226.259 86.118 224.291 85.518L223.187 92.076Z" fill="#F5F5F5"/>
<path d="M132.263 233.658L132.365 237.258H132.965L132.863 233.61L180.533 230.61C180.443 232.95 180.353 235.218 180.275 237.27H181.475C181.553 235.332 181.643 233.01 181.739 230.532L192.029 229.878L193.499 237.27H194.099L192.623 229.842L216.023 228.366L216.293 237.27H219.293L219.017 228.174L229.253 227.526L229.181 226.326L218.981 226.974L218.435 208.686L229.235 208.086L229.199 207.486L218.399 208.086L217.937 192.804L219.263 187.302L229.427 186.276V185.676L219.413 186.69L222.617 173.352L222.287 169.944C223.733 170.22 226.415 170.88 229.487 171.69V169.8C225.353 168.708 223.229 168.258 222.107 168.09L219.407 140.202L229.607 139.218V138.018L219.275 139.014L217.637 122.142L229.637 122.976V121.176L217.421 120.33L216.743 113.298L219.473 103.47L229.673 106.698V103.56L215.759 99.162L216.041 92.112L229.709 95.646V93.786L223.067 92.07L224.171 85.512C226.163 86.112 228.017 86.58 229.739 86.928V86.328C227.895 85.954 226.07 85.4874 224.273 84.93L225.371 78.39L229.769 78.732V77.532L224.369 77.112L223.115 84.552C219.911 83.352 212.825 79.38 213.167 68.1L229.841 61.5V60.738L229.661 60.276L213.173 66.804V38.436H212.573V67.038L205.625 69.792L195.185 48.828C194.689 49.1851 194.115 49.4177 193.511 49.506L203.945 70.458L188.027 76.8L188.387 78.27L175.787 78.786L175.307 49.464H174.707L175.187 78.81L153.089 79.71C153.053 75.186 153.005 70.956 152.981 68.604V68.352L151.625 38.154H151.025L152.381 68.274L129.683 65.016L135.083 38.082H133.535H133.247L127.895 64.752L120.695 63.72L120.635 64.11V64.314L127.787 65.34L122.051 93.918L120.509 93.804V96.804L131.747 97.638V112.452L120.431 115.014V116.862L133.553 113.862V97.8L175.553 100.914V118.086H162.113L160.349 126.078H149.411L120.353 131.364V133.194L149.585 127.848H182.873L184.073 142.416L149.453 145.74L149.567 146.94L184.175 143.616L186.467 171.534L151.505 166.968L151.271 168.768L186.617 173.388L187.985 189.858L150.983 193.59L131.783 194.952V169.8L149.969 159.192L149.063 157.638L131.273 168L120.185 166.524V168.324L131.159 169.8V185.814L120.119 186.984V188.784L131.171 187.614V195.6L131.825 218.238L119.975 222.882V224.814L131.891 220.146L132.245 232.476L119.939 233.256V233.658L119.987 234.456L132.263 233.658ZM181.787 229.326C181.823 228.258 181.865 227.178 181.907 226.086H191.279L191.795 228.666L181.787 229.326ZM192.395 228.654L191.795 225.768L190.397 212.568L189.611 202.968L215.171 201.036L215.957 227.142L192.395 228.654ZM198.185 189.426L211.637 188.07L211.259 193.35L199.205 194.646L198.185 189.426ZM197.585 189.486L199.835 201.006L189.509 201.786L188.573 190.386L197.585 189.486ZM215.135 199.854L200.441 200.964L199.439 195.828L212.387 194.436L212.849 187.944L216.089 187.62L214.919 192.492L215.135 199.854ZM197.735 158.4L200.357 170.172L187.031 171.558L186.071 159.84L197.735 158.4ZM200.963 170.106L198.329 158.328L217.913 155.928L219.113 168.234L200.963 170.106ZM214.445 120.126L184.901 118.08L187.715 101.784L189.779 101.94H214.673L216.671 102.576L213.785 113.04L214.445 120.126ZM212.645 68.328C212.615 71.424 213.293 81.648 223.097 85.128L222.017 91.8L215.921 90.222L206.291 70.86L212.645 68.328ZM204.569 71.526L214.385 91.164L214.073 98.964H194.657L189.443 77.556L204.569 71.526ZM188.489 78.864L193.379 98.94H189.965L176.129 97.92L175.823 79.386L188.489 78.864ZM175.181 79.41L175.481 97.872L153.047 96.21C153.143 93.21 153.125 86.556 153.047 80.31L175.181 79.41ZM129.527 65.61L152.363 68.886C152.477 78.366 152.579 91.806 152.465 96.186L123.815 94.062L129.527 65.61ZM187.091 101.76L182.891 126.066H176.153V100.926L187.091 101.76ZM163.517 119.874H175.517V126.066H162.185L163.517 119.874ZM183.317 126.978L184.517 119.886L214.547 121.962L216.227 139.326L184.559 142.374L183.317 126.978ZM216.365 140.526L217.685 154.14L185.885 158.064L184.685 143.568L216.365 140.526ZM187.127 173.37L219.221 170.028L219.527 173.154L216.191 187.02L188.477 189.816L187.127 173.37ZM189.755 212.664L191.117 225.528H181.931C182.093 221.286 182.249 217.044 182.363 213.858C182.561 208.14 182.561 208.14 182.183 207.954L181.895 208.518L181.295 208.548C181.295 209.046 181.037 216.888 180.695 225.27L153.965 212.4L153.017 193.962L187.985 190.458L189.755 212.664ZM150.599 194.232L150.413 217.902L132.365 218.76L131.693 195.57L150.599 194.232ZM132.395 219.912V219.372L151.025 218.49L151.223 194.19L152.363 194.076L153.329 212.838L180.659 225.936C180.617 227.1 180.569 228.27 180.527 229.434L132.773 232.434L132.395 219.912Z" fill="white"/>
<path d="M159.695 219.06L133.619 220.884V229.26L176.663 226.926L159.695 219.06Z" fill="#EBEBEB"/>
<path d="M213.413 124.122L187.331 122.472L185.717 126.948L186.599 140.286L214.919 136.926L213.413 124.122Z" fill="#EBEBEB"/>
<path d="M132.563 268.938L216.281 269.322C217.962 269.331 219.629 269.008 221.185 268.372C222.742 267.736 224.158 266.799 225.352 265.616C226.546 264.432 227.495 263.025 228.145 261.474C228.795 259.923 229.133 258.259 229.139 256.578L229.223 237.27H119.903L119.843 251.874V256.47C119.927 259.794 121.302 262.954 123.676 265.282C126.051 267.609 129.238 268.92 132.563 268.938Z" fill="#EBEBEB"/>
<path d="M149.927 65.724L149.495 41.196H136.757L133.061 63.258L149.927 65.724Z" fill="#EBEBEB"/>
<path d="M211.685 96.282L212.981 90.966L204.017 73.914L192.515 79.578L196.349 95.706L211.685 96.282Z" fill="#EBEBEB"/>
<path d="M133.619 171C133.757 171.774 133.619 192.522 133.619 192.522L150.419 191.466L148.493 163.104L133.619 171Z" fill="#EBEBEB"/>
<path d="M189.539 187.872L188.651 175.014L217.409 171.318V173.538L213.929 185.364L189.539 187.872Z" fill="#EBEBEB"/>
<path d="M168.269 81.234C168.269 81.927 168.063 82.6045 167.678 83.1807C167.293 83.7569 166.746 84.2061 166.106 84.4713C165.466 84.7365 164.761 84.8059 164.081 84.6707C163.402 84.5355 162.777 84.2017 162.287 83.7117C161.797 83.2217 161.463 82.5973 161.328 81.9176C161.193 81.2379 161.262 80.5333 161.528 79.8931C161.793 79.2528 162.242 78.7055 162.818 78.3205C163.394 77.9355 164.072 77.73 164.765 77.73C165.694 77.73 166.585 78.0992 167.243 78.7563C167.9 79.4134 168.269 80.3047 168.269 81.234Z" fill="#F77C00"/>
<g opacity="0.6">
<path d="M168.263 81.084C168.293 81.7766 168.117 82.4626 167.757 83.0552C167.398 83.6478 166.87 84.1204 166.242 84.4132C165.613 84.7059 164.912 84.8057 164.227 84.6998C163.542 84.594 162.904 84.2872 162.393 83.8185C161.882 83.3497 161.522 82.74 161.358 82.0664C161.194 81.3929 161.233 80.6858 161.471 80.0346C161.709 79.3834 162.134 78.8174 162.694 78.4083C163.254 77.9991 163.922 77.7651 164.615 77.736C165.542 77.697 166.447 78.0276 167.131 78.6553C167.815 79.283 168.222 80.1565 168.263 81.084Z" fill="white"/>
</g>
<path d="M164.765 83.442C166.051 83.442 167.093 82.3997 167.093 81.114C167.093 79.8283 166.051 78.786 164.765 78.786C163.479 78.786 162.437 79.8283 162.437 81.114C162.437 82.3997 163.479 83.442 164.765 83.442Z" fill="#F77C00"/>
<path d="M218.903 221.124C218.898 221.419 218.807 221.706 218.64 221.949C218.473 222.192 218.238 222.38 217.965 222.491C217.691 222.601 217.391 222.629 217.102 222.569C216.813 222.51 216.548 222.367 216.34 222.158C216.132 221.95 215.99 221.684 215.932 221.395C215.874 221.106 215.903 220.806 216.014 220.533C216.126 220.26 216.315 220.026 216.559 219.86C216.803 219.694 217.09 219.604 217.385 219.6C217.585 219.598 217.784 219.635 217.97 219.711C218.156 219.787 218.324 219.899 218.466 220.041C218.607 220.183 218.719 220.352 218.794 220.538C218.869 220.724 218.906 220.923 218.903 221.124Z" fill="#F77C00"/>
<path d="M216.509 220.638L216.143 212.238L190.871 213.468C190.208 213.499 189.549 213.358 188.957 213.06L153.107 194.952C152.699 194.745 152.353 194.434 152.103 194.051C151.853 193.667 151.709 193.225 151.685 192.768L146.801 98.124C146.789 97.8998 146.825 97.6757 146.907 97.4666C146.989 97.2575 147.114 97.0683 147.275 96.9116C147.436 96.7548 147.628 96.6342 147.839 96.5577C148.05 96.4812 148.275 96.4506 148.499 96.468L163.865 97.602V80.802H165.665V97.83C165.669 98.0475 165.629 98.2635 165.546 98.4648C165.464 98.666 165.341 98.8482 165.185 99C165.023 99.1465 164.834 99.2588 164.627 99.3299C164.421 99.4011 164.202 99.4297 163.985 99.414L148.631 98.28L153.497 192.678C153.506 192.817 153.551 192.952 153.628 193.069C153.704 193.186 153.81 193.281 153.935 193.344L189.785 211.464C190.099 211.622 190.448 211.697 190.799 211.68L216.287 210.438C216.709 210.42 217.12 210.568 217.433 210.852C217.59 210.993 217.717 211.164 217.806 211.354C217.896 211.545 217.946 211.751 217.955 211.962L218.321 220.56L216.509 220.638Z" fill="#F77C00"/>
<path d="M149.741 143.766C152.246 143.766 154.277 141.735 154.277 139.23C154.277 136.725 152.246 134.694 149.741 134.694C147.236 134.694 145.205 136.725 145.205 139.23C145.205 141.735 147.236 143.766 149.741 143.766Z" fill="#F77C00"/>
<path d="M149.741 142.38C151.481 142.38 152.891 140.97 152.891 139.23C152.891 137.49 151.481 136.08 149.741 136.08C148.001 136.08 146.591 137.49 146.591 139.23C146.591 140.97 148.001 142.38 149.741 142.38Z" fill="#FAFAFA"/>
<path d="M149.741 142.608C149.073 142.609 148.419 142.412 147.863 142.042C147.306 141.671 146.872 141.144 146.616 140.527C146.359 139.91 146.291 139.23 146.421 138.575C146.551 137.919 146.872 137.317 147.344 136.844C147.816 136.37 148.418 136.048 149.074 135.917C149.729 135.787 150.409 135.853 151.026 136.109C151.644 136.364 152.172 136.797 152.543 137.353C152.915 137.908 153.113 138.562 153.113 139.23C153.111 140.124 152.756 140.982 152.124 141.615C151.492 142.248 150.635 142.605 149.741 142.608ZM149.741 136.302C149.162 136.301 148.595 136.472 148.113 136.793C147.63 137.114 147.254 137.57 147.032 138.105C146.809 138.64 146.75 139.229 146.862 139.798C146.975 140.366 147.253 140.888 147.662 141.298C148.072 141.708 148.593 141.988 149.162 142.101C149.73 142.215 150.319 142.157 150.854 141.936C151.389 141.714 151.847 141.339 152.169 140.857C152.491 140.376 152.663 139.809 152.663 139.23C152.661 138.455 152.353 137.712 151.806 137.163C151.258 136.615 150.516 136.305 149.741 136.302Z" fill="#F77C00"/>
<path d="M176.459 120.204H154.859C154.354 120.204 153.871 120.404 153.514 120.761C153.157 121.118 152.957 121.602 152.957 122.106V129.906C152.957 130.41 153.157 130.894 153.514 131.251C153.871 131.608 154.354 131.808 154.859 131.808H155.111V133.674L157.277 131.808H176.477C176.981 131.808 177.465 131.608 177.822 131.251C178.179 130.894 178.379 130.41 178.379 129.906V122.106C178.379 121.855 178.329 121.606 178.232 121.374C178.136 121.142 177.994 120.932 177.815 120.755C177.637 120.578 177.425 120.438 177.192 120.344C176.959 120.249 176.71 120.202 176.459 120.204Z" fill="#F77C00"/>
<g opacity="0.4">
<path d="M176.459 120.204H154.859C154.354 120.204 153.871 120.404 153.514 120.761C153.157 121.118 152.957 121.602 152.957 122.106V129.906C152.957 130.41 153.157 130.894 153.514 131.251C153.871 131.608 154.354 131.808 154.859 131.808H155.111V133.674L157.277 131.808H176.477C176.981 131.808 177.465 131.608 177.822 131.251C178.179 130.894 178.379 130.41 178.379 129.906V122.106C178.379 121.855 178.329 121.606 178.232 121.374C178.136 121.142 177.994 120.932 177.815 120.755C177.637 120.578 177.425 120.438 177.192 120.344C176.959 120.249 176.71 120.202 176.459 120.204Z" fill="white"/>
</g>
<path d="M157.817 125.892C157.807 125.634 157.875 125.379 158.011 125.16C158.147 124.941 158.346 124.767 158.581 124.662C158.817 124.556 159.079 124.523 159.333 124.567C159.587 124.611 159.823 124.73 160.009 124.908C160.195 125.087 160.324 125.317 160.379 125.569C160.433 125.822 160.411 126.084 160.316 126.324C160.22 126.564 160.055 126.77 159.842 126.915C159.629 127.06 159.377 127.139 159.119 127.14C158.95 127.148 158.782 127.122 158.624 127.063C158.466 127.004 158.321 126.913 158.199 126.796C158.078 126.679 157.981 126.539 157.915 126.383C157.849 126.228 157.816 126.061 157.817 125.892ZM160.061 125.892C160.062 125.704 160.007 125.52 159.904 125.363C159.8 125.206 159.652 125.084 159.478 125.011C159.305 124.939 159.114 124.92 158.929 124.956C158.745 124.992 158.576 125.083 158.443 125.216C158.31 125.349 158.219 125.518 158.183 125.703C158.146 125.887 158.166 126.078 158.238 126.252C158.311 126.425 158.433 126.573 158.59 126.677C158.747 126.78 158.931 126.835 159.119 126.834C159.244 126.838 159.368 126.817 159.484 126.771C159.6 126.725 159.706 126.656 159.794 126.567C159.883 126.479 159.952 126.374 159.998 126.257C160.044 126.141 160.065 126.017 160.061 125.892Z" fill="white"/>
<path d="M162.785 126.192C162.792 126.316 162.772 126.441 162.728 126.558C162.684 126.674 162.616 126.78 162.528 126.869C162.441 126.958 162.336 127.027 162.22 127.073C162.104 127.118 161.98 127.139 161.855 127.134C161.728 127.14 161.601 127.115 161.486 127.061C161.371 127.006 161.271 126.924 161.195 126.822V127.116H160.871V124.524H161.207V125.544C161.285 125.448 161.384 125.371 161.496 125.32C161.609 125.269 161.732 125.245 161.855 125.25C161.98 125.245 162.104 125.266 162.22 125.311C162.336 125.357 162.441 125.426 162.528 125.515C162.616 125.604 162.684 125.71 162.728 125.826C162.772 125.943 162.792 126.068 162.785 126.192ZM162.449 126.192C162.44 126.076 162.397 125.965 162.325 125.873C162.254 125.781 162.157 125.711 162.047 125.673C161.937 125.635 161.818 125.63 161.705 125.658C161.592 125.686 161.49 125.747 161.411 125.832C161.331 125.918 161.279 126.025 161.259 126.139C161.24 126.254 161.254 126.372 161.301 126.479C161.347 126.586 161.424 126.677 161.521 126.741C161.619 126.805 161.732 126.84 161.849 126.84C161.934 126.844 162.019 126.829 162.098 126.798C162.177 126.766 162.248 126.718 162.307 126.657C162.366 126.595 162.411 126.522 162.44 126.442C162.469 126.362 162.48 126.277 162.473 126.192H162.449Z" fill="white"/>
<path d="M162.635 127.698L162.743 127.44C162.821 127.502 162.919 127.534 163.019 127.53C163.193 127.53 163.295 127.416 163.295 127.206V125.268H163.625V127.2C163.632 127.281 163.622 127.362 163.594 127.438C163.567 127.514 163.523 127.583 163.466 127.641C163.408 127.698 163.339 127.742 163.263 127.769C163.187 127.797 163.106 127.807 163.025 127.8C162.887 127.807 162.751 127.771 162.635 127.698ZM163.235 124.698C163.235 124.669 163.241 124.641 163.252 124.614C163.263 124.587 163.28 124.563 163.3 124.543C163.321 124.523 163.345 124.507 163.372 124.497C163.399 124.486 163.428 124.481 163.457 124.482C163.486 124.48 163.515 124.485 163.542 124.494C163.569 124.504 163.594 124.519 163.615 124.539C163.637 124.558 163.654 124.582 163.666 124.608C163.678 124.635 163.684 124.663 163.685 124.692C163.686 124.722 163.68 124.752 163.669 124.779C163.658 124.807 163.641 124.832 163.62 124.853C163.598 124.874 163.573 124.89 163.545 124.901C163.517 124.911 163.487 124.916 163.457 124.914C163.427 124.916 163.398 124.911 163.37 124.901C163.342 124.89 163.317 124.874 163.296 124.853C163.275 124.832 163.259 124.807 163.248 124.779C163.238 124.751 163.233 124.722 163.235 124.692V124.698Z" fill="white"/>
<path d="M165.929 126.3H164.429C164.436 126.38 164.46 126.458 164.498 126.529C164.536 126.6 164.588 126.662 164.651 126.712C164.713 126.763 164.785 126.8 164.863 126.822C164.94 126.844 165.021 126.85 165.101 126.84C165.201 126.843 165.3 126.825 165.392 126.787C165.484 126.749 165.567 126.691 165.635 126.618L165.821 126.834C165.684 126.971 165.51 127.066 165.32 127.108C165.13 127.149 164.933 127.135 164.751 127.067C164.569 127 164.41 126.881 164.294 126.726C164.177 126.571 164.107 126.386 164.093 126.192C164.088 126.068 164.108 125.944 164.153 125.829C164.198 125.713 164.266 125.607 164.353 125.519C164.441 125.431 164.545 125.361 164.66 125.315C164.775 125.269 164.899 125.247 165.023 125.25C165.147 125.246 165.27 125.269 165.385 125.316C165.499 125.362 165.603 125.433 165.689 125.522C165.775 125.611 165.841 125.718 165.883 125.834C165.926 125.95 165.943 126.074 165.935 126.198C165.936 126.232 165.934 126.266 165.929 126.3ZM164.429 126.06H165.629C165.629 125.901 165.566 125.748 165.453 125.636C165.341 125.523 165.188 125.46 165.029 125.46C164.87 125.46 164.717 125.523 164.605 125.636C164.492 125.748 164.429 125.901 164.429 126.06Z" fill="white"/>
<path d="M166.229 126.192C166.226 126.064 166.25 125.938 166.299 125.82C166.347 125.702 166.42 125.595 166.512 125.507C166.604 125.418 166.713 125.35 166.832 125.306C166.952 125.261 167.08 125.243 167.207 125.25C167.356 125.24 167.504 125.272 167.636 125.34C167.769 125.409 167.879 125.513 167.957 125.64L167.705 125.808C167.65 125.725 167.575 125.656 167.487 125.609C167.399 125.562 167.301 125.538 167.201 125.538C167.039 125.554 166.889 125.629 166.779 125.749C166.67 125.87 166.61 126.026 166.61 126.189C166.61 126.352 166.67 126.508 166.779 126.629C166.889 126.749 167.039 126.824 167.201 126.84C167.3 126.841 167.398 126.818 167.486 126.772C167.574 126.725 167.649 126.658 167.705 126.576L167.957 126.738C167.88 126.866 167.769 126.97 167.637 127.04C167.505 127.11 167.356 127.142 167.207 127.134C167.08 127.141 166.953 127.121 166.833 127.076C166.714 127.032 166.605 126.963 166.514 126.875C166.422 126.787 166.349 126.681 166.3 126.563C166.251 126.446 166.227 126.319 166.229 126.192Z" fill="white"/>
<path d="M169.457 127.008C169.339 127.094 169.195 127.138 169.049 127.134C168.967 127.147 168.883 127.141 168.804 127.116C168.725 127.091 168.653 127.047 168.595 126.988C168.536 126.929 168.492 126.858 168.467 126.779C168.442 126.7 168.435 126.616 168.449 126.534V125.514H168.131V125.244H168.449V124.836H168.785V125.244H169.313V125.514H168.785V126.516C168.778 126.556 168.781 126.598 168.793 126.637C168.805 126.676 168.825 126.712 168.853 126.742C168.881 126.772 168.915 126.795 168.953 126.81C168.991 126.825 169.032 126.831 169.073 126.828C169.166 126.83 169.257 126.8 169.331 126.744L169.457 127.008Z" fill="white"/>
<path d="M169.799 124.692C169.8 124.663 169.806 124.634 169.818 124.607C169.83 124.581 169.847 124.557 169.868 124.537C169.889 124.517 169.914 124.501 169.941 124.491C169.969 124.48 169.998 124.475 170.027 124.476C170.056 124.474 170.085 124.479 170.112 124.488C170.139 124.498 170.164 124.513 170.185 124.533C170.206 124.552 170.224 124.576 170.236 124.602C170.248 124.629 170.254 124.657 170.255 124.686C170.255 124.746 170.231 124.804 170.188 124.847C170.145 124.89 170.087 124.914 170.027 124.914C169.966 124.914 169.908 124.89 169.866 124.847C169.823 124.804 169.799 124.746 169.799 124.686V124.692ZM169.859 125.292H170.195V127.14H169.859V125.292Z" fill="white"/>
<path d="M172.469 125.268L171.659 127.116H171.317L170.507 125.268H170.861L171.461 126.75L172.109 125.268H172.469Z" fill="white"/>
<path d="M174.395 126.3H172.895C172.902 126.38 172.926 126.458 172.964 126.529C173.002 126.6 173.054 126.662 173.116 126.712C173.179 126.763 173.251 126.8 173.329 126.822C173.406 126.844 173.487 126.85 173.567 126.84C173.667 126.843 173.766 126.825 173.858 126.787C173.95 126.749 174.033 126.691 174.101 126.618L174.281 126.834C174.19 126.935 174.078 127.015 173.952 127.067C173.826 127.119 173.691 127.142 173.555 127.134C173.426 127.143 173.297 127.126 173.176 127.082C173.054 127.039 172.943 126.971 172.85 126.882C172.756 126.793 172.682 126.686 172.632 126.568C172.582 126.449 172.557 126.321 172.559 126.192C172.554 126.068 172.574 125.944 172.619 125.829C172.664 125.713 172.732 125.607 172.819 125.519C172.907 125.431 173.011 125.361 173.126 125.315C173.241 125.269 173.365 125.247 173.489 125.25C173.613 125.246 173.736 125.269 173.851 125.316C173.965 125.362 174.069 125.433 174.155 125.522C174.241 125.611 174.307 125.718 174.349 125.834C174.392 125.95 174.409 126.074 174.401 126.198C174.402 126.232 174.4 126.266 174.395 126.3ZM172.895 126.06H174.095C174.095 125.901 174.032 125.748 173.919 125.636C173.807 125.523 173.654 125.46 173.495 125.46C173.336 125.46 173.183 125.523 173.071 125.636C172.958 125.748 172.895 125.901 172.895 126.06Z" fill="white"/>
<path d="M169.325 69.468C169.33 68.7753 169.175 68.0907 168.872 67.4679C168.568 66.8451 168.125 66.3009 167.576 65.8781C167.028 65.4553 166.388 65.1652 165.709 65.0306C165.029 64.896 164.328 64.9206 163.659 65.1024C162.991 65.2842 162.373 65.6183 161.856 66.0785C161.338 66.5387 160.934 67.1125 160.675 67.755C160.416 68.3975 160.309 69.0912 160.363 69.7819C160.416 70.4726 160.629 71.1414 160.985 71.736C161.159 72.024 161.375 72.234 161.585 72.54L164.195 75.99C164.27 76.0906 164.368 76.1722 164.481 76.2285C164.593 76.2847 164.717 76.314 164.843 76.314C164.969 76.314 165.093 76.2847 165.205 76.2285C165.318 76.1722 165.415 76.0906 165.491 75.99L168.053 72.594C168.287 72.3186 168.505 72.0301 168.707 71.73C169.11 71.0443 169.324 70.2635 169.325 69.468ZM164.837 71.4C164.445 71.4012 164.062 71.2861 163.735 71.0692C163.409 70.8524 163.154 70.5436 163.003 70.1819C162.853 69.8202 162.812 69.4219 162.888 69.0374C162.964 68.6529 163.152 68.2996 163.429 68.0221C163.705 67.7446 164.058 67.5554 164.442 67.4785C164.827 67.4016 165.225 67.4405 165.587 67.5901C165.949 67.7398 166.259 67.9936 166.477 68.3193C166.695 68.6451 166.811 69.0281 166.811 69.42C166.811 69.9441 166.603 70.4468 166.233 70.818C165.863 71.1891 165.361 71.3984 164.837 71.4Z" fill="#F77C00"/>
<path d="M140.249 246.39H139.415V246.084H141.431V246.39H140.585V248.526H140.237L140.249 246.39Z" fill="#263238"/>
<path d="M141.401 247.602C141.399 247.412 141.453 247.225 141.556 247.066C141.66 246.907 141.809 246.782 141.984 246.707C142.159 246.632 142.352 246.611 142.539 246.647C142.725 246.682 142.898 246.772 143.033 246.905C143.169 247.038 143.262 247.208 143.301 247.395C143.339 247.581 143.322 247.774 143.251 247.95C143.179 248.127 143.057 248.278 142.9 248.384C142.743 248.491 142.557 248.549 142.367 248.55C142.24 248.557 142.113 248.537 141.994 248.492C141.875 248.447 141.766 248.378 141.675 248.288C141.585 248.199 141.513 248.092 141.466 247.974C141.419 247.856 141.397 247.729 141.401 247.602ZM142.985 247.602C142.985 247.437 142.919 247.279 142.803 247.163C142.687 247.046 142.529 246.981 142.364 246.981C142.199 246.981 142.041 247.046 141.925 247.163C141.808 247.279 141.743 247.437 141.743 247.602C141.743 247.767 141.808 247.925 141.925 248.041C142.041 248.158 142.199 248.223 142.364 248.223C142.529 248.223 142.687 248.158 142.803 248.041C142.919 247.925 142.985 247.767 142.985 247.602Z" fill="#263238"/>
<path d="M144.827 248.4C144.713 248.491 144.571 248.538 144.425 248.532C144.343 248.544 144.26 248.537 144.182 248.511C144.103 248.485 144.032 248.441 143.974 248.383C143.915 248.325 143.872 248.254 143.846 248.175C143.82 248.097 143.813 248.014 143.825 247.932V246.918H143.513V246.642H143.825V246.24H144.185V246.642H144.713V246.918H144.185V247.92C144.178 247.96 144.181 248.002 144.193 248.041C144.205 248.08 144.225 248.116 144.253 248.146C144.281 248.176 144.315 248.199 144.353 248.214C144.391 248.229 144.432 248.235 144.473 248.232C144.568 248.231 144.661 248.199 144.737 248.142L144.827 248.4Z" fill="#263238"/>
<path d="M146.699 247.41V248.526H146.381V248.286C146.31 248.375 146.218 248.446 146.114 248.492C146.009 248.538 145.895 248.558 145.781 248.55C145.361 248.55 145.097 248.328 145.097 248.004C145.097 247.68 145.289 247.464 145.835 247.464H146.369V247.398C146.369 247.116 146.207 246.948 145.871 246.948C145.653 246.941 145.44 247.014 145.271 247.152L145.127 246.9C145.348 246.734 145.619 246.649 145.895 246.66C146 246.642 146.108 246.648 146.21 246.679C146.312 246.709 146.405 246.763 146.483 246.835C146.561 246.908 146.621 246.998 146.658 247.097C146.696 247.197 146.71 247.304 146.699 247.41ZM146.363 247.962V247.704H145.847C145.517 247.704 145.421 247.836 145.421 247.992C145.421 248.148 145.571 248.292 145.829 248.292C145.941 248.3 146.054 248.273 146.15 248.214C146.245 248.154 146.32 248.066 146.363 247.962Z" fill="#263238"/>
<path d="M147.317 245.94H147.655V248.526H147.317V245.94Z" fill="#263238"/>
<path d="M150.971 245.94V248.526H150.653V248.232C150.577 248.335 150.477 248.417 150.362 248.473C150.247 248.528 150.12 248.555 149.993 248.55C149.755 248.531 149.533 248.423 149.372 248.248C149.21 248.073 149.12 247.843 149.12 247.605C149.12 247.367 149.21 247.137 149.372 246.962C149.533 246.787 149.755 246.679 149.993 246.66C150.117 246.655 150.241 246.679 150.353 246.732C150.466 246.784 150.565 246.862 150.641 246.96V245.94H150.971ZM150.641 247.602C150.63 247.486 150.587 247.376 150.515 247.285C150.443 247.193 150.346 247.125 150.236 247.088C150.125 247.05 150.007 247.046 149.894 247.075C149.782 247.104 149.68 247.165 149.601 247.25C149.523 247.336 149.471 247.443 149.451 247.557C149.432 247.672 149.447 247.79 149.494 247.896C149.54 248.003 149.617 248.094 149.714 248.158C149.811 248.221 149.925 248.256 150.041 248.256C150.124 248.256 150.207 248.239 150.284 248.206C150.36 248.172 150.429 248.123 150.485 248.062C150.542 248 150.585 247.927 150.612 247.848C150.638 247.769 150.648 247.685 150.641 247.602Z" fill="#263238"/>
<path d="M151.547 246.108C151.547 246.078 151.553 246.049 151.564 246.022C151.576 245.994 151.593 245.97 151.614 245.949C151.635 245.928 151.66 245.912 151.688 245.901C151.716 245.89 151.745 245.885 151.775 245.886C151.807 245.881 151.839 245.882 151.87 245.891C151.901 245.9 151.93 245.915 151.955 245.936C151.979 245.956 151.999 245.982 152.013 246.012C152.026 246.041 152.033 246.073 152.033 246.105C152.033 246.137 152.026 246.169 152.013 246.198C151.999 246.228 151.979 246.253 151.955 246.274C151.93 246.295 151.901 246.31 151.87 246.319C151.839 246.328 151.807 246.329 151.775 246.324C151.746 246.325 151.717 246.32 151.689 246.309C151.662 246.299 151.637 246.283 151.616 246.263C151.595 246.243 151.578 246.219 151.566 246.192C151.554 246.166 151.548 246.137 151.547 246.108ZM151.607 246.678H151.943V248.526H151.607V246.678Z" fill="#263238"/>
<path d="M152.345 248.334L152.489 248.064C152.681 248.191 152.907 248.258 153.137 248.256C153.449 248.256 153.575 248.166 153.575 248.01C153.575 247.59 152.375 247.95 152.375 247.218C152.375 246.882 152.675 246.66 153.149 246.66C153.384 246.658 153.615 246.716 153.821 246.828L153.677 247.092C153.517 246.993 153.331 246.943 153.143 246.948C152.849 246.948 152.711 247.056 152.711 247.2C152.711 247.638 153.911 247.284 153.911 247.998C153.911 248.334 153.605 248.55 153.113 248.55C152.841 248.556 152.574 248.48 152.345 248.334Z" fill="#263238"/>
<path d="M155.369 248.4C155.254 248.493 155.108 248.54 154.961 248.532C154.879 248.544 154.796 248.537 154.718 248.511C154.639 248.485 154.568 248.441 154.51 248.383C154.451 248.325 154.408 248.254 154.382 248.175C154.356 248.097 154.349 248.014 154.361 247.932V246.918H154.043V246.642H154.385V246.24H154.721V246.642H155.249V246.918H154.721V247.92C154.714 247.96 154.717 248.002 154.729 248.041C154.741 248.08 154.761 248.116 154.789 248.146C154.817 248.176 154.851 248.199 154.889 248.214C154.927 248.229 154.968 248.235 155.009 248.232C155.102 248.232 155.193 248.2 155.267 248.142L155.369 248.4Z" fill="#263238"/>
<path d="M157.241 247.41V248.526H156.923V248.286C156.852 248.375 156.76 248.446 156.655 248.492C156.551 248.538 156.437 248.558 156.323 248.55C155.909 248.55 155.639 248.328 155.639 248.004C155.639 247.68 155.831 247.464 156.383 247.464H156.917V247.398C156.917 247.116 156.749 246.948 156.419 246.948C156.201 246.944 155.989 247.016 155.819 247.152L155.681 246.9C155.902 246.734 156.173 246.649 156.449 246.66C156.553 246.644 156.659 246.652 156.76 246.683C156.86 246.715 156.952 246.769 157.029 246.841C157.105 246.913 157.164 247.002 157.201 247.101C157.238 247.199 157.251 247.305 157.241 247.41ZM156.905 247.962V247.704H156.389C156.053 247.704 155.963 247.836 155.963 247.992C155.963 248.148 156.113 248.292 156.371 248.292C156.483 248.3 156.596 248.273 156.692 248.214C156.787 248.154 156.862 248.066 156.905 247.962Z" fill="#263238"/>
<path d="M159.611 247.464V248.526H159.281V247.5C159.281 247.14 159.095 246.96 158.777 246.96C158.696 246.953 158.615 246.963 158.539 246.991C158.463 247.018 158.394 247.062 158.336 247.119C158.279 247.177 158.235 247.246 158.208 247.322C158.18 247.398 158.17 247.479 158.177 247.56V248.508H157.841V246.66H158.159V246.942C158.239 246.842 158.341 246.762 158.458 246.71C158.575 246.658 158.703 246.634 158.831 246.642C158.94 246.63 159.05 246.644 159.153 246.682C159.256 246.72 159.348 246.781 159.424 246.861C159.499 246.94 159.555 247.036 159.588 247.14C159.62 247.245 159.628 247.356 159.611 247.464Z" fill="#263238"/>
<path d="M160.073 247.602C160.07 247.474 160.094 247.348 160.143 247.23C160.191 247.112 160.264 247.005 160.356 246.917C160.448 246.828 160.557 246.76 160.676 246.716C160.796 246.671 160.924 246.652 161.051 246.66C161.201 246.652 161.35 246.684 161.483 246.754C161.617 246.824 161.728 246.928 161.807 247.056L161.549 247.218C161.493 247.136 161.418 247.069 161.33 247.022C161.242 246.976 161.144 246.953 161.045 246.954C160.883 246.97 160.733 247.045 160.623 247.165C160.514 247.286 160.454 247.442 160.454 247.605C160.454 247.768 160.514 247.924 160.623 248.045C160.733 248.165 160.883 248.24 161.045 248.256C161.144 248.257 161.242 248.234 161.33 248.188C161.418 248.141 161.493 248.074 161.549 247.992L161.807 248.148C161.729 248.277 161.617 248.382 161.484 248.453C161.351 248.523 161.201 248.557 161.051 248.55C160.923 248.557 160.796 248.537 160.676 248.492C160.556 248.447 160.447 248.378 160.355 248.289C160.264 248.2 160.191 248.093 160.143 247.975C160.094 247.857 160.07 247.73 160.073 247.602Z" fill="#263238"/>
<path d="M163.871 247.716H162.371C162.378 247.796 162.402 247.874 162.44 247.945C162.478 248.016 162.53 248.078 162.593 248.128C162.655 248.179 162.727 248.216 162.805 248.238C162.882 248.26 162.963 248.266 163.043 248.256C163.143 248.259 163.242 248.241 163.334 248.203C163.426 248.165 163.509 248.107 163.577 248.034L163.763 248.25C163.67 248.35 163.556 248.428 163.43 248.48C163.303 248.532 163.167 248.556 163.031 248.55C162.902 248.559 162.772 248.541 162.65 248.498C162.529 248.454 162.417 248.385 162.324 248.296C162.23 248.207 162.156 248.099 162.106 247.979C162.056 247.86 162.032 247.731 162.035 247.602C162.03 247.478 162.05 247.354 162.095 247.239C162.14 247.123 162.208 247.018 162.295 246.929C162.383 246.841 162.487 246.771 162.602 246.725C162.717 246.679 162.841 246.657 162.965 246.66C163.089 246.656 163.213 246.679 163.328 246.726C163.443 246.773 163.547 246.844 163.633 246.934C163.719 247.024 163.785 247.131 163.827 247.248C163.869 247.365 163.886 247.49 163.877 247.614C163.878 247.648 163.876 247.682 163.871 247.716ZM162.371 247.476H163.571C163.571 247.317 163.508 247.164 163.395 247.052C163.283 246.939 163.13 246.876 162.971 246.876C162.812 246.876 162.659 246.939 162.547 247.052C162.434 247.164 162.371 247.317 162.371 247.476Z" fill="#263238"/>
<path d="M142.445 251.268V257.088H141.095V252.348H139.931V251.268H142.445Z" fill="#263238"/>
<path d="M145.031 256.344C145.018 256.633 144.942 256.915 144.809 257.172L144.329 258.372H143.507L143.873 257.052C143.734 256.995 143.616 256.896 143.535 256.77C143.455 256.643 143.415 256.494 143.423 256.344C143.423 256.131 143.508 255.926 143.658 255.776C143.809 255.625 144.014 255.54 144.227 255.54C144.44 255.54 144.645 255.625 144.795 255.776C144.946 255.926 145.031 256.131 145.031 256.344Z" fill="#263238"/>
<path d="M147.785 251.268V257.088H146.405V252.348H145.241V251.268H147.785Z" fill="#263238"/>
<path d="M148.769 254.178C148.769 252.258 149.831 251.178 151.265 251.178C152.699 251.178 153.761 252.27 153.761 254.178C153.761 256.086 152.705 257.178 151.265 257.178C149.825 257.178 148.769 256.098 148.769 254.178ZM152.405 254.178C152.405 252.858 151.937 252.306 151.265 252.306C150.593 252.306 150.131 252.858 150.131 254.178C150.131 255.498 150.599 256.05 151.265 256.05C151.931 256.05 152.405 255.504 152.405 254.178Z" fill="#263238"/>
<path d="M154.415 254.178C154.415 252.258 155.483 251.178 156.917 251.178C158.351 251.178 159.413 252.27 159.413 254.178C159.413 256.086 158.357 257.178 156.917 257.178C155.477 257.178 154.415 256.098 154.415 254.178ZM158.057 254.178C158.057 252.858 157.589 252.306 156.917 252.306C156.245 252.306 155.783 252.858 155.783 254.178C155.783 255.498 156.251 256.05 156.917 256.05C157.583 256.05 158.057 255.504 158.057 254.178Z" fill="#263238"/>
<path d="M170.261 254.526V257.088H168.965V254.73C168.965 254.004 168.641 253.668 168.113 253.668C167.585 253.668 167.123 254.046 167.123 254.868V257.112H165.827V254.754C165.827 254.028 165.521 253.692 164.981 253.692C164.441 253.692 163.997 254.07 163.997 254.892V257.136H162.701V252.6H163.937V253.116C164.113 252.918 164.331 252.762 164.575 252.658C164.819 252.555 165.082 252.506 165.347 252.516C165.634 252.501 165.921 252.56 166.178 252.689C166.436 252.817 166.656 253.01 166.817 253.248C167.013 253.011 167.26 252.823 167.539 252.696C167.819 252.569 168.124 252.507 168.431 252.516C169.499 252.546 170.261 253.164 170.261 254.526Z" fill="#263238"/>
<path d="M136.352 251.947C136.986 249.247 135.312 246.544 132.612 245.909C129.912 245.274 127.209 246.948 126.574 249.648C125.939 252.348 127.614 255.052 130.314 255.686C133.013 256.321 135.717 254.647 136.352 251.947Z" fill="#F77C00"/>
<path d="M129.437 251.724C129.864 251.663 130.296 251.636 130.727 251.646C131.549 251.646 132.725 251.604 134.129 251.592L134.027 251.814C133.625 251.358 133.199 250.854 132.743 250.332L132.665 250.242L132.743 250.14L134.009 248.562L134.129 248.814H133.529H129.407L129.551 248.676C129.551 250.2 129.515 251.484 129.491 252.384C129.501 252.859 129.473 253.335 129.407 253.806C129.345 253.335 129.317 252.859 129.323 252.384C129.323 251.484 129.281 250.2 129.269 248.676V248.538H129.407H133.529H134.423L134.219 248.79L132.941 250.368V250.176L134.201 251.676L134.393 251.898H134.099C132.695 251.898 131.519 251.862 130.697 251.844C130.274 251.84 129.853 251.8 129.437 251.724Z" fill="#FAFAFA"/>
<path d="M212.717 242.238H197.537C196.765 242.238 196.025 242.545 195.479 243.09C194.934 243.636 194.627 244.376 194.627 245.148V257.1C194.629 257.871 194.936 258.609 195.481 259.154C196.027 259.698 196.766 260.004 197.537 260.004H197.921V262.854L201.227 260.004H212.717C213.488 260.004 214.227 259.698 214.773 259.154C215.318 258.609 215.625 257.871 215.627 257.1V245.148C215.627 244.376 215.32 243.636 214.775 243.09C214.229 242.545 213.489 242.238 212.717 242.238Z" fill="#F77C00"/>
<path d="M198.983 247.722V253.854C198.983 253.918 199.008 253.979 199.053 254.024C199.098 254.069 199.159 254.094 199.223 254.094H212.075C212.106 254.093 212.137 254.086 212.166 254.073C212.195 254.061 212.221 254.042 212.243 254.019C212.265 253.997 212.282 253.97 212.293 253.94C212.304 253.911 212.31 253.88 212.309 253.848L212.279 251.604C212.28 251.555 212.265 251.506 212.237 251.466L210.389 249C210.368 248.97 210.34 248.946 210.308 248.929C210.275 248.913 210.239 248.904 210.203 248.904H208.079C208.016 248.904 207.956 248.88 207.911 248.836C207.866 248.792 207.84 248.733 207.839 248.67V247.74C207.84 247.709 207.834 247.678 207.823 247.649C207.811 247.62 207.794 247.593 207.773 247.571C207.751 247.548 207.725 247.53 207.696 247.518C207.667 247.506 207.636 247.5 207.605 247.5H199.205C199.147 247.504 199.093 247.529 199.053 247.57C199.012 247.61 198.987 247.664 198.983 247.722Z" fill="#FAFAFA"/>
<path d="M208.439 249.426V251.4C208.439 251.437 208.453 251.472 208.479 251.498C208.505 251.523 208.54 251.538 208.577 251.538L211.415 251.49C211.44 251.489 211.463 251.481 211.484 251.468C211.505 251.455 211.522 251.436 211.533 251.414C211.544 251.392 211.549 251.367 211.547 251.343C211.545 251.318 211.537 251.294 211.523 251.274L210.185 249.306C210.173 249.287 210.156 249.271 210.136 249.26C210.116 249.25 210.094 249.245 210.071 249.246L208.559 249.288C208.525 249.291 208.493 249.307 208.471 249.333C208.449 249.359 208.437 249.392 208.439 249.426Z" fill="#F77C00"/>
<path d="M212.567 254.28H198.725V254.707H212.567V254.28Z" fill="#FAFAFA"/>
<path d="M203.303 254.442C203.304 254.714 203.224 254.981 203.074 255.208C202.923 255.434 202.709 255.611 202.458 255.716C202.206 255.821 201.929 255.849 201.662 255.796C201.395 255.743 201.15 255.612 200.957 255.42C200.765 255.227 200.634 254.982 200.581 254.715C200.528 254.447 200.556 254.171 200.661 253.919C200.765 253.668 200.942 253.454 201.169 253.303C201.396 253.153 201.663 253.073 201.935 253.074C202.298 253.074 202.646 253.218 202.902 253.475C203.159 253.731 203.303 254.079 203.303 254.442Z" fill="#F77C00"/>
<path d="M202.739 254.442C202.74 254.603 202.693 254.76 202.605 254.894C202.516 255.028 202.39 255.133 202.242 255.195C202.093 255.257 201.93 255.274 201.772 255.243C201.615 255.212 201.47 255.134 201.356 255.021C201.242 254.907 201.165 254.762 201.134 254.605C201.103 254.447 201.12 254.284 201.182 254.135C201.244 253.987 201.349 253.861 201.483 253.772C201.617 253.683 201.774 253.637 201.935 253.638C202.148 253.638 202.353 253.723 202.503 253.873C202.654 254.024 202.739 254.229 202.739 254.442Z" fill="#FAFAFA"/>
<path d="M207.833 254.094C207.797 254.094 207.767 252.612 207.767 250.788C207.767 248.964 207.767 247.482 207.833 247.482C207.9 247.482 207.894 248.964 207.894 250.788C207.894 252.612 207.863 254.094 207.833 254.094Z" fill="#F77C00"/>
<path d="M210.785 254.442C210.785 254.713 210.705 254.977 210.554 255.202C210.404 255.427 210.19 255.602 209.94 255.706C209.69 255.809 209.415 255.836 209.15 255.784C208.885 255.731 208.641 255.601 208.45 255.409C208.258 255.218 208.128 254.974 208.075 254.709C208.022 254.444 208.049 254.168 208.153 253.918C208.257 253.669 208.432 253.455 208.657 253.305C208.882 253.154 209.146 253.074 209.417 253.074C209.78 253.074 210.128 253.218 210.384 253.475C210.641 253.731 210.785 254.079 210.785 254.442Z" fill="#F77C00"/>
<path d="M210.185 254.442C210.186 254.602 210.14 254.76 210.051 254.894C209.963 255.028 209.837 255.132 209.689 255.195C209.541 255.257 209.378 255.274 209.221 255.243C209.063 255.213 208.918 255.136 208.804 255.023C208.69 254.91 208.613 254.766 208.581 254.608C208.549 254.451 208.565 254.288 208.626 254.139C208.687 253.991 208.791 253.864 208.924 253.775C209.058 253.686 209.214 253.638 209.375 253.638C209.589 253.638 209.794 253.723 209.946 253.873C210.097 254.024 210.183 254.228 210.185 254.442Z" fill="#FAFAFA"/>
<path d="M209.399 251.917C209.399 251.953 209.201 251.977 208.961 251.977C208.721 251.977 208.523 251.977 208.523 251.917C208.523 251.856 208.721 251.85 208.961 251.85C209.201 251.85 209.399 251.88 209.399 251.917Z" fill="#F77C00"/>
<path d="M219.519 151.278C219.519 151.278 229.197 152.91 229.977 153.12C230.757 153.33 233.823 154.782 233.979 155.718C234.06 156.947 234.06 158.179 233.979 159.408C233.979 159.408 233.421 159.858 233.079 158.958C232.849 158.083 232.75 157.18 232.785 156.276L231.069 155.616L232.005 157.278L232.161 161.172C232.161 161.172 230.961 161.064 230.727 160.134C230.58 159.486 230.503 158.824 230.499 158.16L229.251 157.104L230.187 158.37L230.499 161.172C230.499 161.172 229.587 161.472 229.299 160.848C229.088 160.039 228.983 159.206 228.987 158.37L225.459 157.134L223.125 158.436L218.763 156L219.519 151.278Z" fill="#FFBE9D"/>
<path d="M185.631 127.356C185.679 127.548 197.295 143.556 197.295 143.556L220.635 150.816L219.573 159.582L190.971 153.822L180.819 142.17L185.631 127.356Z" fill="#F77C00"/>
<g opacity="0.2">
<path d="M185.631 127.356C185.679 127.548 197.295 143.556 197.295 143.556L220.635 150.816L219.573 159.582L190.971 153.822L180.819 142.17L185.631 127.356Z" fill="black"/>
</g>
<path d="M144.975 149.37H97.2869C96.2762 149.37 95.4569 150.189 95.4569 151.2V156.834C95.4569 157.845 96.2762 158.664 97.2869 158.664H144.975C145.986 158.664 146.805 157.845 146.805 156.834V151.2C146.805 150.189 145.986 149.37 144.975 149.37Z" fill="#F5F5F5"/>
<path d="M144.981 158.664C144.981 158.664 145.083 158.664 145.281 158.622C145.662 158.552 146.011 158.36 146.275 158.076C146.539 157.792 146.704 157.43 146.745 157.044C146.745 156.48 146.745 155.808 146.745 155.064C146.745 154.32 146.745 153.486 146.745 152.58C146.745 152.124 146.745 151.65 146.745 151.158C146.737 150.915 146.68 150.675 146.577 150.454C146.474 150.234 146.327 150.036 146.145 149.874C145.948 149.707 145.716 149.586 145.467 149.52C145.201 149.462 144.928 149.444 144.657 149.466H142.905H139.095L97.329 149.514C97.0954 149.514 96.8643 149.562 96.6504 149.656C96.4366 149.75 96.2447 149.888 96.087 150.06C95.9311 150.234 95.8125 150.439 95.7382 150.661C95.6639 150.882 95.6356 151.117 95.655 151.35C95.655 152.358 95.655 153.36 95.655 154.35V156.6C95.6435 156.83 95.6637 157.06 95.715 157.284C95.8046 157.608 95.9889 157.899 96.2443 158.118C96.4998 158.337 96.8147 158.475 97.149 158.514C97.359 158.514 97.617 158.514 97.857 158.514H108.945L127.719 158.55L140.379 158.598L143.823 158.628L140.379 158.658L127.719 158.706L108.945 158.742H97.815C97.569 158.742 97.341 158.742 97.071 158.742C96.8099 158.711 96.5572 158.629 96.327 158.502C96.0975 158.375 95.8956 158.203 95.7329 157.997C95.5701 157.791 95.4499 157.555 95.379 157.302C95.3143 157.051 95.29 156.792 95.307 156.534V154.308C95.307 153.318 95.307 152.316 95.307 151.308C95.291 151.036 95.3288 150.763 95.4184 150.506C95.508 150.249 95.6475 150.011 95.829 149.808C96.0147 149.603 96.2415 149.439 96.4948 149.327C96.7481 149.216 97.0222 149.159 97.299 149.16L139.065 149.208H144.627C144.915 149.196 145.203 149.22 145.485 149.28C145.76 149.355 146.014 149.49 146.229 149.676C146.432 149.852 146.596 150.068 146.711 150.311C146.825 150.554 146.888 150.818 146.895 151.086C146.895 151.578 146.895 152.058 146.895 152.514C146.895 153.42 146.895 154.248 146.895 154.998C146.895 155.748 146.895 156.402 146.865 156.99C146.799 157.488 146.537 157.939 146.139 158.244C145.896 158.426 145.611 158.544 145.311 158.586C145.206 158.629 145.094 158.656 144.981 158.664Z" fill="#263238"/>
<path d="M274.463 277.424C287.997 276.774 298.442 265.276 297.792 251.742C297.142 238.207 285.643 227.763 272.109 228.413C258.575 229.063 248.13 240.562 248.78 254.096C249.43 267.63 260.929 278.074 274.463 277.424Z" fill="#263238"/>
<path d="M248.763 252.504C248.763 252.504 248.763 252.546 248.763 252.57C248.709 259.051 251.221 265.29 255.751 269.925C260.281 274.56 266.462 277.214 272.942 277.308C279.423 277.401 285.677 274.926 290.339 270.424C295.001 265.922 297.692 259.758 297.825 253.278C297.825 253.278 297.825 253.236 297.825 253.212L248.763 252.504Z" fill="#263238"/>
<path d="M256.065 252.672C256.016 256.079 256.977 259.424 258.829 262.284C260.681 265.144 263.339 267.39 266.467 268.74C269.596 270.089 273.054 270.48 276.405 269.864C279.756 269.248 282.849 267.652 285.292 265.278C287.736 262.904 289.421 259.858 290.134 256.526C290.847 253.195 290.556 249.727 289.297 246.56C288.039 243.394 285.87 240.672 283.065 238.739C280.259 236.805 276.944 235.747 273.537 235.698C268.969 235.632 264.563 237.384 261.286 240.567C258.009 243.75 256.131 248.104 256.065 252.672Z" fill="#FAFAFA"/>
<path d="M273.537 235.698C268.969 235.632 264.562 237.384 261.286 240.567C258.009 243.75 256.131 248.104 256.065 252.672L290.511 253.17C290.577 248.602 288.825 244.195 285.642 240.919C282.459 237.642 278.105 235.764 273.537 235.698Z" fill="#E0E0E0"/>
<path d="M262.797 252.768C262.766 254.843 263.352 256.881 264.48 258.624C265.607 260.367 267.226 261.736 269.132 262.558C271.038 263.381 273.145 263.619 275.186 263.244C277.228 262.869 279.112 261.897 280.601 260.451C282.09 259.005 283.117 257.149 283.551 255.12C283.986 253.09 283.809 250.977 283.042 249.048C282.276 247.119 280.955 245.461 279.246 244.283C277.536 243.105 275.517 242.46 273.441 242.43C270.659 242.39 267.975 243.456 265.979 245.395C263.983 247.334 262.838 249.986 262.797 252.768Z" fill="#263238"/>
<path d="M261.645 216.948C261.645 216.948 286.761 209.352 297.147 236.64L244.587 252.924L261.645 216.948Z" fill="#F77C00"/>
<path d="M123.096 277.427C136.63 276.777 147.074 265.278 146.424 251.744C145.774 238.21 134.276 227.765 120.741 228.415C107.207 229.065 96.7626 240.564 97.4127 254.098C98.0628 267.632 109.561 278.077 123.096 277.427Z" fill="#263238"/>
<path d="M97.3889 252.504C97.3889 252.504 97.3889 252.546 97.3889 252.57C97.3345 259.051 99.8467 265.29 104.377 269.925C108.907 274.56 115.088 277.214 121.568 277.308C128.049 277.401 134.303 274.926 138.965 270.424C143.627 265.922 146.318 259.758 146.451 253.278V253.2L97.3889 252.504Z" fill="#263238"/>
<path d="M104.715 252.672C104.665 256.079 105.627 259.424 107.479 262.284C109.33 265.144 111.989 267.39 115.117 268.74C118.246 270.089 121.704 270.48 125.055 269.864C128.406 269.248 131.499 267.652 133.942 265.278C136.386 262.904 138.071 259.858 138.784 256.526C139.497 253.195 139.206 249.727 137.947 246.56C136.689 243.394 134.52 240.672 131.715 238.739C128.909 236.805 125.594 235.747 122.187 235.698C117.619 235.632 113.212 237.384 109.936 240.567C106.659 243.75 104.781 248.104 104.715 252.672Z" fill="#FAFAFA"/>
<path d="M122.163 235.698C117.599 235.639 113.199 237.393 109.927 240.575C106.656 243.758 104.781 248.108 104.715 252.672L139.161 253.17C139.193 250.906 138.779 248.658 137.943 246.555C137.106 244.451 135.862 242.533 134.284 240.911C132.705 239.288 130.822 237.992 128.742 237.098C126.662 236.203 124.427 235.728 122.163 235.698Z" fill="#E0E0E0"/>
<path d="M111.423 252.768C111.392 254.843 111.978 256.881 113.105 258.624C114.233 260.367 115.852 261.736 117.758 262.558C119.664 263.381 121.771 263.619 123.812 263.244C125.854 262.869 127.738 261.897 129.227 260.451C130.716 259.005 131.743 257.149 132.177 255.12C132.612 253.09 132.435 250.977 131.668 249.048C130.902 247.119 129.58 245.461 127.871 244.283C126.162 243.105 124.142 242.46 122.067 242.43C119.285 242.39 116.6 243.456 114.604 245.395C112.608 247.334 111.464 249.986 111.423 252.768Z" fill="#263238"/>
<path d="M156.813 243.072C156.675 243.144 143.901 241.098 143.901 241.098C143.21 242 142.331 242.739 141.325 243.266C140.318 243.792 139.209 244.093 138.075 244.146C132.555 244.41 127.161 244.656 122.475 244.866C120.381 244.96 118.41 245.879 116.993 247.423C115.576 248.967 114.829 251.01 114.915 253.104C114.999 255.091 115.828 256.975 117.236 258.38C118.644 259.784 120.529 260.609 122.517 260.688L149.715 261.762C154.185 261.936 160.125 259.224 162.915 255.726L156.813 243.072Z" fill="#455A64"/>
<path d="M90.063 232.2C90.063 232.2 88.899 208.29 111.369 203.31V200.244H190.077V207.6C190.077 207.6 178.527 221.514 182.277 233.064C186.027 244.614 187.227 245.796 187.227 245.796H232.023C235.558 240.828 237.528 234.917 237.681 228.822C237.921 218.682 233.709 201.348 230.559 190.266C227.715 180.156 225.915 171.732 225.915 171.732L239.355 167.25C239.355 167.25 264.225 199.8 265.239 201.6C266.253 203.4 269.709 207.696 268.899 217.044C268.089 226.392 245.715 255.228 239.847 258.48C233.979 261.732 228.675 261.936 223.389 262.746C218.805 263.454 184.893 262.986 176.019 262.848C172.935 262.829 169.912 261.99 167.259 260.418C164.607 258.81 162.615 256.146 160.413 251.778L155.715 242.634L90.063 232.2Z" fill="#F77C00"/>
<path d="M96.0869 230.556L86.1749 246.084C85.8807 246.514 85.7346 247.029 85.7588 247.55C85.783 248.071 85.9761 248.569 86.3089 248.971C86.6417 249.372 87.0962 249.654 87.6036 249.774C88.1109 249.894 88.6436 249.846 89.1209 249.636C90.3544 249.085 91.4815 248.321 92.4509 247.38C96.9809 243.066 105.051 231.702 105.051 231.702L96.0869 230.556Z" fill="#455A64"/>
<path d="M167.181 233.352C167.181 233.352 167.181 233.274 167.241 233.124L167.439 232.47C167.678 231.63 167.852 230.774 167.961 229.908C168.293 226.703 167.763 223.467 166.425 220.536C165.525 218.513 164.29 216.657 162.771 215.046C161.027 213.206 159.002 211.655 156.771 210.45C154.299 209.115 151.654 208.13 148.911 207.522C145.954 206.884 142.936 206.572 139.911 206.592C136.9 206.614 133.893 206.836 130.911 207.258C128.007 207.648 125.223 208.128 122.595 208.728C117.929 209.719 113.432 211.382 109.245 213.666C106.433 215.226 103.864 217.189 101.619 219.492C100.827 220.308 100.257 220.986 99.879 221.448L99.453 221.982C99.4075 222.046 99.3552 222.104 99.297 222.156C99.959 221.176 100.706 220.257 101.529 219.408C103.755 217.061 106.319 215.061 109.137 213.474C113.332 211.149 117.846 209.455 122.535 208.446C125.163 207.846 127.935 207.348 130.869 206.952C133.875 206.527 136.905 206.302 139.941 206.28C142.982 206.26 146.017 206.576 148.989 207.222C151.759 207.851 154.428 208.86 156.921 210.222C159.183 211.444 161.235 213.02 162.999 214.89C164.529 216.529 165.768 218.415 166.665 220.47C167.997 223.441 168.499 226.717 168.117 229.95C167.991 230.82 167.79 231.677 167.517 232.512C167.421 232.788 167.349 232.998 167.289 233.16C167.259 233.227 167.222 233.291 167.181 233.352Z" fill="#263238"/>
<path d="M162.651 228C162.615 228 162.777 227.622 162.945 226.938C163.17 225.953 163.2 224.934 163.035 223.938C162.801 222.473 162.305 221.063 161.571 219.774C161.155 219.003 160.669 218.272 160.119 217.59C159.543 216.848 158.889 216.171 158.169 215.568C156.765 214.412 155.185 213.488 153.489 212.832C152.101 212.288 150.662 211.886 149.193 211.632C148.2 211.464 147.198 211.35 146.193 211.29C145.824 211.285 145.455 211.257 145.089 211.206C145.184 211.192 145.282 211.192 145.377 211.206C145.563 211.206 145.839 211.206 146.199 211.206C147.203 211.221 148.206 211.303 149.199 211.452C150.691 211.666 152.156 212.042 153.567 212.574C155.307 213.229 156.928 214.163 158.367 215.34C159.101 215.959 159.769 216.652 160.359 217.41C160.911 218.111 161.399 218.86 161.817 219.648C162.56 220.969 163.044 222.418 163.245 223.92C163.394 224.934 163.331 225.968 163.059 226.956C162.988 227.223 162.892 227.482 162.771 227.73C162.744 227.825 162.703 227.916 162.651 228Z" fill="#F5F5F5"/>
<g opacity="0.4">
<path d="M147.237 207.036C151.473 207.81 155.506 209.443 159.087 211.836C162.687 214.226 165.46 217.672 167.025 221.7C168.597 225.744 168.363 231.102 166.707 234.45L172.269 234.912C174.141 228.666 172.107 221.004 167.607 216.114C165.032 213.263 161.89 210.98 158.383 209.413C154.875 207.846 151.079 207.028 147.237 207.012" fill="black"/>
</g>
<path d="M145.461 158.196H96.8069C93.9638 158.196 91.6589 160.501 91.6589 163.344V195.114C91.6589 197.957 93.9638 200.262 96.8069 200.262H145.461C148.304 200.262 150.609 197.957 150.609 195.114V163.344C150.609 160.501 148.304 158.196 145.461 158.196Z" fill="#455A64"/>
<path d="M150.609 167.58C150.609 167.67 137.355 167.736 121.011 167.736C104.667 167.736 91.407 167.67 91.407 167.58C91.407 167.49 104.655 167.424 121.011 167.424C137.367 167.424 150.609 167.496 150.609 167.58Z" fill="#263238"/>
<path d="M190.041 203.046C190.041 203.13 172.347 203.202 150.531 203.202C128.715 203.202 111.021 203.13 111.021 203.046C111.021 202.962 128.709 202.89 150.531 202.89C172.353 202.89 190.041 202.962 190.041 203.046Z" fill="#263238"/>
<path d="M190.077 200.262C190.879 199.246 191.374 198.022 191.505 196.734C191.625 194.76 190.725 192.288 188.595 192.288H161.415C159.3 192.288 157.272 193.128 155.776 194.624C154.281 196.119 153.441 198.147 153.441 200.262H190.077Z" fill="#455A64"/>
<path d="M225.915 171.732L221.187 161.874C220.556 160.521 220.452 158.981 220.896 157.555C221.34 156.129 222.299 154.92 223.587 154.164L237.723 145.734C238.46 145.291 239.305 145.056 240.165 145.056H243.219L244.419 164.982L239.715 166.8L242.715 171.648L225.915 171.732Z" fill="#F77C00"/>
<path d="M243.261 145.8C243.261 145.8 248.097 146.91 248.703 154.362C249.309 161.814 244.437 164.142 244.437 164.142L243.261 145.8Z" fill="#EBEBEB"/>
<path d="M227.565 158.01C227.565 158.01 217.791 162.642 216.597 163.41C215.769 163.938 215.061 164.862 215.709 166.488C216.813 169.254 221.385 166.65 221.385 166.65L230.487 162.102C230.487 162.102 233.985 160.452 232.689 158.382C231.243 156.066 227.565 158.01 227.565 158.01Z" fill="#263238"/>
<path d="M213.729 156.324C213.729 156.324 222.915 157.896 223.695 158.124C224.475 158.352 227.535 159.786 227.691 160.722C227.772 161.951 227.772 163.183 227.691 164.412C227.691 164.412 227.139 164.862 226.791 163.962C226.565 163.085 226.466 162.179 226.497 161.274L224.781 160.614L225.717 162.276L225.873 166.176C225.873 166.176 224.673 166.068 224.445 165.132C224.298 164.486 224.221 163.826 224.217 163.164L222.963 162.102L223.899 163.368L224.217 166.176C224.217 166.176 223.305 166.47 223.017 165.846C222.806 165.037 222.701 164.204 222.705 163.368L219.177 162.138L216.843 163.44L213.171 161.4L213.729 156.324Z" fill="#FFBE9D"/>
<path d="M228.033 143.532C228.033 147.252 226.323 150.264 224.217 150.264C222.111 150.264 220.401 147.264 220.401 143.532C220.401 139.8 222.105 136.8 224.217 136.8C226.329 136.8 228.033 139.8 228.033 143.532Z" fill="#263238"/>
<path d="M224.841 148.158L226.941 155.43C227.324 155.237 227.63 154.919 227.808 154.528C227.986 154.138 228.025 153.698 227.919 153.282C227.391 150.792 227.091 149.022 226.515 146.838C226.443 146.622 224.841 148.158 224.841 148.158Z" fill="#263238"/>
<g opacity="0.4">
<path d="M183.315 236.142C183.111 235.542 182.895 234.942 182.715 234.3C182.535 233.658 182.307 233.1 182.151 232.5C181.909 231.6 181.733 230.684 181.623 229.758C178.083 244.158 183.489 254.316 192.765 255.03C206.325 256.074 222.855 256.83 229.539 255.078C241.725 251.88 246.195 241.716 247.263 240.042C248.331 238.368 258.021 220.65 252.063 203.592C246.105 186.534 235.773 168.42 235.773 168.42L225.915 171.732C225.915 171.732 227.715 180.132 230.577 190.236C233.727 201.318 237.939 218.652 237.699 228.792C237.546 234.887 235.576 240.798 232.041 245.766H187.251C187.251 245.766 186.291 244.806 183.333 236.166" fill="black"/>
</g>
<path d="M88.2749 228.468L88.5929 225.048L170.361 234.468C171.454 234.597 172.509 234.947 173.461 235.498C174.414 236.049 175.243 236.789 175.9 237.672C176.556 238.555 177.025 239.563 177.277 240.634C177.53 241.705 177.561 242.817 177.369 243.9L177.003 245.97L92.4029 233.676C91.1759 233.508 90.0612 232.872 89.2919 231.902C88.5226 230.931 88.1582 229.701 88.2749 228.468Z" fill="#F77C00"/>
<g opacity="0.6">
<path d="M88.2749 228.468L88.5929 225.048L170.361 234.468C171.454 234.597 172.509 234.947 173.461 235.498C174.414 236.049 175.243 236.789 175.9 237.672C176.556 238.555 177.025 239.563 177.277 240.634C177.53 241.705 177.561 242.817 177.369 243.9L177.003 245.97L92.4029 233.676C91.1759 233.508 90.0612 232.872 89.2919 231.902C88.5226 230.931 88.1582 229.701 88.2749 228.468Z" fill="black"/>
</g>
<g opacity="0.3">
<path d="M247.263 251.34C247.263 251.34 265.263 231.54 268.977 215.976C270.843 215.965 272.707 216.104 274.551 216.39C274.551 216.39 263.907 245.328 247.263 251.34Z" fill="black"/>
</g>
<path d="M268.713 209.004C268.76 209.167 268.792 209.334 268.809 209.502C268.857 209.832 268.953 210.318 269.013 210.948C269.189 212.747 269.142 214.56 268.875 216.348C268.452 218.988 267.644 221.551 266.475 223.956C265.049 226.884 263.459 229.728 261.711 232.476C258.575 237.491 255.052 242.253 251.175 246.72C249.711 248.454 248.499 249.834 247.659 250.782L246.687 251.868C246.576 251.997 246.458 252.119 246.333 252.234C246.422 252.091 246.525 251.956 246.639 251.832L247.569 250.704L251.007 246.582C254.823 242.081 258.312 237.313 261.447 232.314C263.197 229.575 264.799 226.745 266.247 223.836C267.4 221.455 268.208 218.921 268.647 216.312C268.923 214.55 269.001 212.763 268.881 210.984C268.839 210.354 268.761 209.868 268.737 209.532C268.711 209.357 268.703 209.18 268.713 209.004Z" fill="#263238"/>
<path d="M237.597 251.196C236.566 250.407 235.601 249.536 234.711 248.592C233.75 247.721 232.859 246.776 232.047 245.766C234.04 247.423 235.896 249.239 237.597 251.196Z" fill="#263238"/>
<path d="M184.173 250.59C184.463 249.665 184.911 248.798 185.499 248.028C185.999 247.199 186.639 246.462 187.389 245.85C187.455 245.916 186.633 246.9 185.757 248.202C184.881 249.504 184.257 250.626 184.173 250.59Z" fill="#263238"/>
<path d="M149.589 262.02C150.573 261.122 151.403 260.068 152.043 258.9C152.715 257.624 153.123 256.227 153.243 254.79C153.425 253.038 153.119 251.271 152.358 249.682C151.598 248.094 150.413 246.747 148.935 245.79C147.743 244.98 146.4 244.419 144.987 244.14C143.677 243.903 142.337 243.885 141.021 244.086C141.106 244.05 141.194 244.023 141.285 244.008C141.546 243.94 141.81 243.888 142.077 243.852C143.059 243.721 144.055 243.745 145.029 243.924C146.482 244.181 147.867 244.734 149.097 245.55C150.634 246.526 151.866 247.916 152.65 249.56C153.434 251.203 153.739 253.035 153.531 254.844C153.393 256.318 152.952 257.748 152.235 259.044C151.763 259.915 151.156 260.705 150.435 261.384C150.246 261.571 150.046 261.745 149.835 261.906C149.758 261.954 149.675 261.992 149.589 262.02Z" fill="#263238"/>
<path d="M119.717 255.75C119.51 254.804 119.411 253.838 119.421 252.87C119.317 251.905 119.317 250.931 119.421 249.966C119.723 251.878 119.816 253.818 119.699 255.75H119.717Z" fill="#263238"/>
<path d="M121.899 255.756C121.45 253.855 121.202 251.913 121.161 249.96C121.434 250.899 121.609 251.865 121.683 252.84C121.857 253.802 121.929 254.779 121.899 255.756Z" fill="#263238"/>
<path d="M155.625 200.262C155.625 200.346 145.683 200.418 133.425 200.418C121.167 200.418 111.225 200.346 111.225 200.262C111.225 200.178 121.167 200.106 133.425 200.106C145.683 200.106 155.625 200.172 155.625 200.262Z" fill="#263238"/>
<path d="M123.43 200.232C123.339 200.232 123.273 188.832 123.273 174.804C123.273 160.776 123.315 149.4 123.43 149.4C123.545 149.4 123.587 160.8 123.587 174.834C123.587 188.868 123.515 200.232 123.43 200.232Z" fill="#263238"/>
<path d="M117.315 200.19C117.231 200.19 117.657 188.79 118.269 174.774C118.881 160.758 119.469 149.364 119.529 149.37C119.589 149.376 119.193 160.77 118.581 174.786C117.969 188.802 117.429 200.196 117.315 200.19Z" fill="#263238"/>
<path d="M103.569 269.58C103.472 269.499 103.384 269.408 103.305 269.31C103.149 269.13 102.891 268.872 102.609 268.506C101.78 267.487 101.039 266.399 100.395 265.254C98.2231 261.463 97.089 257.166 97.1069 252.796C97.1248 248.427 98.2941 244.139 100.497 240.366C101.148 239.225 101.896 238.143 102.735 237.132C103.023 236.766 103.281 236.532 103.443 236.328C103.605 236.124 103.701 236.058 103.707 236.07C103.647 236.178 103.575 236.279 103.491 236.37C103.347 236.568 103.101 236.832 102.831 237.21C99.7531 241.131 97.8988 245.871 97.4997 250.84C97.1006 255.808 98.1744 260.784 100.587 265.146C101.208 266.292 101.916 267.39 102.705 268.428C102.969 268.806 103.209 269.076 103.353 269.274C103.497 269.472 103.581 269.568 103.569 269.58Z" fill="#455A64"/>
<path d="M189.525 223.866L189.339 224.214L185.715 231L180.651 235.872L190.773 249.348L199.203 247.95C199.203 247.95 198.261 246.024 194.025 245.652L192.423 237.6L198.369 228.384" fill="#455A64"/>
<path d="M180.663 235.89L190.785 249.366L199.215 247.968L198.057 246.858L191.139 247.614L181.743 234.852L180.663 235.89Z" fill="#E0E0E0"/>
<path d="M193.365 241.968C193.317 242.064 192.765 241.866 192.165 241.998C191.565 242.13 191.079 242.472 191.001 242.4C190.923 242.328 191.301 241.764 192.093 241.626C192.885 241.488 193.431 241.89 193.365 241.968Z" fill="#263238"/>
<path d="M192.915 240C192.843 240.072 192.381 239.64 191.715 239.616C191.049 239.592 190.515 239.994 190.461 239.916C190.407 239.838 190.503 239.73 190.719 239.556C191.011 239.343 191.366 239.233 191.727 239.244C192.089 239.253 192.436 239.387 192.711 239.622C192.873 239.79 192.915 239.952 192.915 240Z" fill="#263238"/>
<path d="M192.525 237.39C192.441 237.456 192.069 237.018 191.451 236.91C190.833 236.802 190.335 237.084 190.251 236.994C190.167 236.904 190.305 236.82 190.527 236.694C190.82 236.539 191.157 236.486 191.483 236.545C191.809 236.604 192.106 236.77 192.327 237.018C192.531 237.21 192.567 237.366 192.525 237.39Z" fill="#263238"/>
<path d="M194.445 235.02C194.355 235.068 194.037 234.63 193.455 234.378C192.873 234.126 192.345 234.162 192.321 234.06C192.297 233.958 192.921 233.712 193.611 234.06C194.301 234.408 194.547 234.99 194.445 235.02Z" fill="#263238"/>
<path d="M195.261 233.106C195.219 233.136 194.889 232.848 194.379 232.344L193.515 231.45C193.319 231.275 193.15 231.073 193.011 230.85C192.971 230.77 192.947 230.682 192.941 230.593C192.934 230.503 192.946 230.413 192.975 230.328C193.009 230.231 193.071 230.146 193.153 230.084C193.236 230.022 193.334 229.986 193.437 229.98C193.744 229.984 194.043 230.08 194.295 230.256C194.515 230.397 194.716 230.564 194.895 230.754C195.193 231.082 195.413 231.474 195.537 231.9C195.695 232.284 195.695 232.716 195.537 233.1C195.476 232.729 195.392 232.362 195.285 232.002C195.139 231.633 194.92 231.296 194.643 231.012C194.479 230.85 194.296 230.709 194.097 230.592C193.906 230.467 193.688 230.391 193.461 230.37C193.429 230.371 193.399 230.38 193.373 230.399C193.347 230.417 193.328 230.442 193.317 230.472C193.285 230.551 193.285 230.639 193.317 230.718C193.434 230.911 193.575 231.089 193.737 231.246L194.559 232.2C194.84 232.463 195.077 232.768 195.261 233.106Z" fill="#263238"/>
<path d="M195.603 233.304C195.561 233.304 195.519 232.86 195.891 232.278C196.144 231.894 196.514 231.602 196.947 231.445C197.379 231.288 197.851 231.275 198.291 231.408C198.339 231.44 198.38 231.481 198.411 231.53C198.442 231.578 198.463 231.633 198.471 231.69C198.479 231.788 198.458 231.886 198.411 231.972C198.344 232.092 198.257 232.2 198.153 232.29C197.986 232.451 197.805 232.598 197.613 232.728C197.289 232.946 196.933 233.112 196.557 233.22C196.222 233.356 195.852 233.383 195.501 233.298C195.501 233.238 195.891 233.202 196.473 232.968C196.808 232.835 197.125 232.66 197.415 232.446C197.586 232.32 197.747 232.179 197.895 232.026C197.968 231.962 198.031 231.887 198.081 231.804C198.111 231.72 198.081 231.744 198.081 231.726C197.999 231.691 197.912 231.673 197.823 231.672C197.717 231.663 197.611 231.663 197.505 231.672C197.299 231.69 197.097 231.739 196.905 231.816C196.581 231.942 196.294 232.149 196.071 232.416C195.895 232.701 195.739 232.998 195.603 233.304Z" fill="#263238"/>
<path d="M187.347 234.516C187.38 234.714 187.353 234.917 187.271 235.1C187.188 235.283 187.053 235.437 186.883 235.543C186.713 235.649 186.515 235.703 186.314 235.696C186.113 235.69 185.919 235.624 185.756 235.507C185.593 235.39 185.468 235.227 185.398 235.04C185.327 234.852 185.314 234.647 185.359 234.452C185.405 234.256 185.508 234.079 185.654 233.942C185.801 233.805 185.985 233.714 186.183 233.682C186.448 233.64 186.718 233.704 186.936 233.86C187.154 234.016 187.301 234.252 187.347 234.516Z" fill="#E0E0E0"/>
<path d="M220.245 230.346L222.951 247.914L244.833 244.662C244.389 242.592 232.449 240.078 232.449 240.078L231.177 228.75L220.245 230.346Z" fill="#455A64"/>
<path d="M225.543 240.138C225.342 240.232 225.182 240.398 225.096 240.603C225.009 240.808 225.002 241.038 225.075 241.248C225.164 241.451 225.327 241.614 225.53 241.701C225.734 241.789 225.964 241.797 226.173 241.722C226.39 241.62 226.561 241.439 226.651 241.217C226.741 240.995 226.744 240.746 226.659 240.522C226.546 240.317 226.357 240.164 226.133 240.095C225.909 240.027 225.667 240.049 225.459 240.156" fill="#E0E0E0"/>
<path d="M222.951 247.914L222.747 246.114L243.801 243.66C243.801 243.66 244.839 243.942 244.833 244.644L222.951 247.914Z" fill="#E0E0E0"/>
<path d="M232.785 239.916C232.785 240.024 232.275 240.15 231.795 240.57C231.315 240.99 231.111 241.482 231.003 241.458C230.895 241.434 230.967 240.786 231.549 240.288C232.131 239.79 232.797 239.814 232.785 239.916Z" fill="#263238"/>
<path d="M235.221 240.522C235.263 240.624 234.825 240.87 234.531 241.38C234.237 241.89 234.201 242.376 234.093 242.388C233.985 242.4 233.829 241.788 234.207 241.188C234.585 240.588 235.203 240.42 235.221 240.522Z" fill="#263238"/>
<path d="M236.937 243.072C236.841 243.114 236.613 242.598 236.799 241.974C236.985 241.35 237.453 241.038 237.513 241.122C237.573 241.206 237.309 241.566 237.159 242.082C237.009 242.598 237.039 243.048 236.937 243.072Z" fill="#263238"/>
<path d="M232.209 237.366C232.209 237.468 231.669 237.396 231.069 237.522C230.469 237.648 230.031 237.918 229.959 237.834C229.887 237.75 230.289 237.3 230.991 237.156C231.693 237.012 232.251 237.27 232.209 237.366Z" fill="#263238"/>
<path d="M231.315 234.846C230.97 234.996 230.59 235.05 230.217 235.002C229.811 234.991 229.408 234.93 229.017 234.822C228.778 234.765 228.543 234.691 228.315 234.6C228.181 234.552 228.058 234.481 227.949 234.39C227.866 234.326 227.808 234.236 227.784 234.134C227.76 234.033 227.772 233.926 227.817 233.832C227.859 233.749 227.92 233.677 227.995 233.622C228.07 233.567 228.157 233.53 228.249 233.514C228.386 233.493 228.526 233.493 228.663 233.514C228.907 233.532 229.148 233.576 229.383 233.646C229.777 233.758 230.151 233.93 230.493 234.156C231.093 234.552 231.303 234.924 231.267 234.954C231.231 234.984 230.925 234.696 230.355 234.384C230.02 234.203 229.663 234.068 229.293 233.982C229.077 233.925 228.856 233.891 228.633 233.88C228.393 233.88 228.195 233.88 228.153 233.994C228.111 234.108 228.153 234.048 228.195 234.114C228.277 234.176 228.368 234.227 228.465 234.264C228.67 234.357 228.881 234.439 229.095 234.51C229.46 234.627 229.836 234.709 230.217 234.756C230.585 234.76 230.952 234.79 231.315 234.846Z" fill="#263238"/>
<path d="M231.189 235.02C231.153 235.02 230.883 234.69 230.739 234.006C230.674 233.609 230.674 233.203 230.739 232.806C230.778 232.565 230.838 232.328 230.919 232.098C230.955 231.947 231.029 231.808 231.134 231.693C231.239 231.579 231.371 231.493 231.519 231.444C231.616 231.432 231.715 231.447 231.805 231.488C231.894 231.53 231.969 231.596 232.023 231.678C232.098 231.799 232.157 231.931 232.197 232.068C232.27 232.307 232.307 232.556 232.305 232.806C232.305 233.225 232.202 233.637 232.005 234.006C231.663 234.606 231.237 234.828 231.225 234.792C231.213 234.756 231.519 234.486 231.765 233.892C231.908 233.551 231.974 233.182 231.957 232.812C231.951 232.597 231.913 232.385 231.843 232.182C231.777 231.954 231.663 231.78 231.579 231.816C231.495 231.852 231.309 232.032 231.249 232.23C231.168 232.436 231.105 232.649 231.063 232.866C230.995 233.236 230.979 233.614 231.015 233.988C231.069 234.6 231.243 234.996 231.189 235.02Z" fill="#263238"/>
<path d="M203.031 189.078L184.269 229.962L196.659 237.402L222.603 188.208" fill="#263238"/>
<path d="M233.973 238.332L220.515 240.492L212.457 192.408L172.647 195.294C171.594 195.367 170.536 195.268 169.515 195C158.337 191.934 159.849 177.678 160.929 175.392L216.015 173.814C218.901 173.73 221.717 174.714 223.922 176.577C226.127 178.441 227.568 181.052 227.967 183.912L233.973 238.332Z" fill="#263238"/>
<path d="M160.371 177.648L160.569 157.32C160.569 157.32 157.947 144.12 157.167 138.906C155.967 130.842 154.311 127.008 167.523 121.278L170.415 120.162L174.885 120.222C180.213 120.624 185.829 125.442 185.961 128.622L191.115 174.444L160.371 177.648Z" fill="#F77C00"/>
<path d="M161.199 126C161.199 126 157.467 134.028 158.199 141.342L172.101 154.686C175.215 158.154 179.115 159.63 184.101 159.93L212.865 163.074L213.663 155.55L186.315 147.798C185.223 147.594 184.677 146.46 183.843 145.728L161.199 126Z" fill="#F77C00"/>
<path d="M158.949 128.316C159.111 128.162 159.297 128.036 159.501 127.944C160.093 127.683 160.719 127.507 161.361 127.422C162.39 127.253 163.44 127.253 164.469 127.422C164.787 127.48 165.094 127.585 165.381 127.734C165.674 127.918 165.956 128.118 166.227 128.334C166.779 128.766 167.337 129.264 167.907 129.804C169.059 130.878 170.151 132.24 171.429 133.62C172.707 135 174.105 136.482 175.629 138.036C177.153 139.59 178.791 141.216 180.543 142.896C181.425 143.736 182.343 144.588 183.297 145.422C183.783 145.818 184.263 146.286 184.725 146.724C185.16 147.174 185.71 147.498 186.315 147.66L213.717 155.4L213.843 155.436V155.568C213.789 156.102 213.723 156.672 213.663 157.254C213.453 159.252 213.243 161.232 213.063 163.092V163.248H212.907L200.715 161.892L194.955 161.262L189.441 160.704C187.641 160.506 185.907 160.302 184.221 160.056C182.574 159.854 180.953 159.478 179.385 158.934C177.94 158.384 176.572 157.648 175.317 156.744C174.117 155.898 172.989 155.016 171.951 154.146C167.841 150.642 164.823 147.504 162.729 145.368C161.691 144.294 160.893 143.448 160.359 142.872L159.759 142.212L159.561 141.978C159.561 141.978 159.639 142.044 159.783 142.188C159.927 142.332 160.137 142.554 160.383 142.83L162.783 145.29C164.901 147.396 167.943 150.51 172.059 153.984C173.097 154.842 174.207 155.718 175.413 156.552C176.66 157.437 178.015 158.159 179.445 158.7C181.002 159.231 182.611 159.597 184.245 159.792C185.931 160.032 187.671 160.236 189.459 160.428L194.973 160.968L200.733 161.598L212.913 162.924L212.739 163.062C212.937 161.202 213.147 159.222 213.339 157.218C213.405 156.618 213.465 156.066 213.519 155.532L213.633 155.7L186.273 147.93C185.605 147.764 184.998 147.413 184.521 146.916C184.035 146.454 183.597 146.022 183.099 145.608C182.133 144.768 181.227 143.91 180.345 143.07C178.593 141.384 176.961 139.746 175.443 138.186C173.925 136.626 172.533 135.138 171.243 133.74C169.953 132.342 168.897 130.986 167.757 129.912C167.233 129.392 166.68 128.901 166.101 128.442C165.84 128.222 165.563 128.022 165.273 127.842C165.001 127.694 164.707 127.591 164.403 127.536C163.391 127.351 162.355 127.334 161.337 127.488C160.7 127.559 160.076 127.719 159.483 127.962C159.296 128.066 159.118 128.185 158.949 128.316Z" fill="#263238"/>
<path d="M166.131 102.528L167.523 122.328C167.634 123.885 168.331 125.342 169.473 126.405C170.615 127.468 172.118 128.059 173.679 128.058C174.523 128.058 175.358 127.885 176.132 127.55C176.907 127.214 177.604 126.723 178.181 126.107C178.758 125.491 179.202 124.764 179.487 123.969C179.771 123.175 179.89 122.33 179.835 121.488C179.709 119.604 179.601 118.062 179.601 118.062C179.601 118.062 184.401 117.318 184.449 112.524C184.485 109.758 184.005 103.482 183.597 98.67C183.463 97.0981 182.742 95.6343 181.578 94.5693C180.414 93.5044 178.892 92.9163 177.315 92.922H174.417C173.237 92.9937 172.083 93.3009 171.023 93.8257C169.964 94.3504 169.02 95.082 168.248 95.9773C167.475 96.8726 166.89 97.9135 166.527 99.0385C166.163 100.164 166.029 101.35 166.131 102.528Z" fill="#FFBE9D"/>
<path d="M179.607 117.984C177.395 118.026 175.222 117.41 173.361 116.214C173.361 116.214 174.837 119.658 179.619 119.214L179.607 117.984Z" fill="#EB996E"/>
<path d="M182.523 104.82C182.524 104.998 182.456 105.17 182.333 105.299C182.21 105.428 182.041 105.504 181.863 105.51C181.777 105.518 181.69 105.509 181.607 105.483C181.525 105.457 181.448 105.415 181.382 105.359C181.316 105.303 181.262 105.235 181.223 105.158C181.184 105.08 181.161 104.996 181.155 104.91C181.153 104.731 181.221 104.558 181.344 104.429C181.467 104.299 181.636 104.222 181.815 104.214C181.989 104.201 182.161 104.257 182.294 104.371C182.427 104.484 182.509 104.646 182.523 104.82Z" fill="#263238"/>
<path d="M182.775 103.47C182.685 103.56 182.175 103.176 181.431 103.176C180.687 103.176 180.159 103.548 180.075 103.458C179.991 103.368 180.123 103.254 180.363 103.086C180.679 102.864 181.057 102.746 181.443 102.75C181.827 102.749 182.201 102.871 182.511 103.098C182.715 103.266 182.811 103.428 182.775 103.47Z" fill="#263238"/>
<path d="M175.611 104.82C175.614 104.999 175.547 105.172 175.423 105.301C175.299 105.43 175.13 105.505 174.951 105.51C174.865 105.518 174.778 105.509 174.695 105.483C174.613 105.457 174.536 105.415 174.47 105.359C174.404 105.303 174.35 105.235 174.311 105.158C174.272 105.08 174.249 104.996 174.243 104.91C174.241 104.731 174.309 104.558 174.432 104.429C174.555 104.299 174.724 104.222 174.903 104.214C175.077 104.201 175.249 104.257 175.382 104.371C175.515 104.484 175.597 104.646 175.611 104.82Z" fill="#263238"/>
<path d="M175.515 103.608C175.431 103.698 174.915 103.314 174.171 103.314C173.427 103.314 172.899 103.686 172.821 103.596C172.743 103.506 172.863 103.392 173.103 103.224C173.419 103.002 173.797 102.884 174.183 102.888C174.566 102.885 174.941 103.005 175.251 103.23C175.515 103.404 175.581 103.566 175.515 103.608Z" fill="#263238"/>
<path d="M178.209 109.068C178.598 108.946 179.002 108.874 179.409 108.852C179.595 108.852 179.775 108.792 179.805 108.666C179.825 108.471 179.781 108.275 179.679 108.108L179.115 106.68C178.598 105.468 178.18 104.216 177.867 102.936C178.476 104.104 178.994 105.318 179.415 106.566L179.943 108.006C180.063 108.232 180.099 108.494 180.045 108.744C180.017 108.811 179.975 108.87 179.921 108.918C179.867 108.966 179.803 109.001 179.733 109.02C179.629 109.047 179.522 109.061 179.415 109.062C179.015 109.115 178.61 109.117 178.209 109.068Z" fill="#263238"/>
<path d="M176.043 109.578C176.163 109.578 176.163 110.37 176.847 110.934C177.531 111.498 178.383 111.414 178.389 111.534C178.395 111.654 178.197 111.684 177.837 111.696C177.369 111.701 176.915 111.542 176.553 111.246C176.213 110.958 175.999 110.549 175.953 110.106C175.899 109.8 175.989 109.572 176.043 109.578Z" fill="#263238"/>
<path d="M175.725 100.722C175.653 100.92 174.921 100.83 174.057 100.932C173.193 101.034 172.491 101.274 172.377 101.094C172.263 100.914 172.449 100.818 172.731 100.626C173.106 100.387 173.531 100.237 173.973 100.188C174.415 100.139 174.863 100.193 175.281 100.344C175.599 100.47 175.761 100.626 175.725 100.722Z" fill="#263238"/>
<path d="M182.499 101.34C182.373 101.508 181.863 101.34 181.257 101.34C180.651 101.34 180.129 101.448 180.009 101.274C179.889 101.1 180.039 101.022 180.267 100.866C180.567 100.669 180.922 100.572 181.281 100.59C181.638 100.597 181.983 100.715 182.271 100.926C182.487 101.088 182.559 101.256 182.499 101.34Z" fill="#263238"/>
<path d="M167.745 106.128C167.661 106.092 164.451 105.15 164.559 108.426C164.667 111.702 167.925 110.922 167.931 110.826C167.937 110.73 167.745 106.128 167.745 106.128Z" fill="#FFBE9D"/>
<path d="M166.887 109.62C166.887 109.62 166.833 109.662 166.737 109.71C166.6 109.762 166.448 109.762 166.311 109.71C166.096 109.583 165.919 109.4 165.798 109.182C165.677 108.964 165.616 108.718 165.621 108.468C165.604 108.188 165.649 107.907 165.753 107.646C165.78 107.542 165.832 107.447 165.904 107.367C165.976 107.288 166.066 107.227 166.167 107.19C166.233 107.172 166.302 107.176 166.365 107.204C166.427 107.231 166.478 107.279 166.509 107.34C166.557 107.43 166.539 107.496 166.557 107.502C166.575 107.508 166.623 107.442 166.593 107.31C166.573 107.228 166.524 107.155 166.455 107.106C166.409 107.074 166.358 107.051 166.303 107.038C166.249 107.026 166.192 107.025 166.137 107.034C165.999 107.061 165.871 107.124 165.766 107.217C165.66 107.31 165.581 107.429 165.537 107.562C165.406 107.849 165.348 108.165 165.369 108.48C165.361 108.772 165.44 109.06 165.596 109.306C165.752 109.553 165.978 109.748 166.245 109.866C166.333 109.889 166.425 109.892 166.515 109.875C166.604 109.857 166.688 109.819 166.761 109.764C166.887 109.698 166.899 109.626 166.887 109.62Z" fill="#EB996E"/>
<path d="M165.915 106.014C166.227 105.994 166.538 106.058 166.816 106.201C167.094 106.344 167.328 106.559 167.493 106.824C167.703 107.292 167.751 107.82 167.961 108.288C168.052 108.529 168.217 108.734 168.433 108.873C168.649 109.012 168.904 109.079 169.161 109.062C169.331 109.009 169.484 108.911 169.604 108.779C169.724 108.648 169.807 108.486 169.845 108.312C169.914 107.963 169.914 107.605 169.845 107.256C169.653 105.726 169.335 104.214 169.275 102.672C169.147 101.125 169.483 99.5748 170.241 98.22C170.625 97.5489 171.184 96.9943 171.858 96.6151C172.532 96.2358 173.296 96.0461 174.069 96.066C175.089 96.15 176.019 96.666 177.033 96.822C177.635 96.9008 178.247 96.8418 178.823 96.6495C179.399 96.4573 179.923 96.1367 180.357 95.712C180.548 95.5509 180.749 95.4006 180.957 95.262C180.944 94.8998 180.825 94.5494 180.615 94.254C178.605 92.394 174.993 91.854 172.341 92.544C170.994 92.8759 169.735 93.4971 168.653 94.3643C167.57 95.2315 166.689 96.3241 166.071 97.566C164.931 100.05 165.267 103.5 165.897 106.014" fill="#263238"/>
<path d="M183.651 97.926C183.651 97.926 171.087 93.882 165.651 104.754C165.232 103.387 164.958 101.979 164.835 100.554C164.835 99.582 165.435 93.78 171.387 91.956C171.387 91.98 180.381 88.548 183.651 97.926Z" fill="#F77C00"/>
<path d="M172.851 98.196C173.074 98.5568 173.378 98.8607 173.739 99.0838C174.1 99.3069 174.508 99.4431 174.93 99.4815C175.353 99.5199 175.778 99.4595 176.173 99.3052C176.569 99.1508 176.922 98.9066 177.207 98.592C177.331 98.9044 177.55 99.1702 177.833 99.3518C178.115 99.5335 178.448 99.6219 178.784 99.6047C179.12 99.5875 179.441 99.4655 179.704 99.2558C179.967 99.0462 180.158 98.7595 180.249 98.436C180.584 98.8121 180.993 99.1162 181.449 99.33C181.684 99.43 181.944 99.4554 182.194 99.4028C182.444 99.3502 182.672 99.2222 182.847 99.036C182.99 98.8187 183.059 98.5607 183.043 98.301C183.026 98.0412 182.926 97.7938 182.757 97.596C182.417 97.202 181.978 96.9058 181.485 96.738C179.996 96.0837 178.361 95.8353 176.745 96.018C175.121 96.2131 173.633 97.0225 172.587 98.28" fill="#263238"/>
<g opacity="0.4">
<path d="M183.651 97.926C182.603 96.8298 181.17 96.1843 179.655 96.126C175.947 95.964 169.011 98.046 165.651 104.766C165.232 103.399 164.958 101.991 164.835 100.566C164.835 99.594 165.435 93.792 171.387 91.968C171.387 91.98 180.381 88.548 183.651 97.926Z" fill="black"/>
</g>
<path d="M166.173 103.482C168.078 100.645 170.575 98.2539 173.493 96.474C176.385 94.674 181.161 92.874 184.449 92.01C185.424 91.6876 186.458 91.5792 187.479 91.692C187.988 91.7564 188.468 91.9628 188.865 92.2875C189.262 92.6122 189.559 93.0421 189.723 93.528C190.035 94.77 187.833 96.684 186.795 97.434C185.782 98.1114 184.732 98.7323 183.651 99.294C183.651 99.294 183.681 96.99 179.997 96.516C174.987 95.874 166.173 103.482 166.173 103.482Z" fill="#F77C00"/>
<g opacity="0.3">
<path d="M161.751 144.312C163.047 147.438 164.355 151.296 166.233 154.11C168.111 156.924 170.619 159.426 173.739 160.71C177.663 162.354 182.301 162.618 186.201 160.938C186.519 160.8 187.143 160.626 187.083 160.284C187.083 160.284 185.793 160.134 185.391 160.068C177.513 158.76 176.655 157.8 172.881 154.8C170.529 152.946 165.315 147.324 161.751 144.312Z" fill="black"/>
</g>
<path d="M186.807 167.076C186.727 167.333 186.616 167.578 186.477 167.808C186.127 168.457 185.7 169.061 185.205 169.608C183.536 171.358 181.435 172.639 179.115 173.322C176.803 173.98 174.415 174.337 172.011 174.384C171.093 174.42 170.349 174.426 169.839 174.426C169.572 174.437 169.305 174.425 169.041 174.39C169.301 174.33 169.566 174.3 169.833 174.3L171.999 174.162C174.377 174.052 176.734 173.67 179.025 173.022C181.306 172.344 183.38 171.106 185.061 169.422C185.716 168.697 186.301 167.912 186.807 167.076Z" fill="#263238"/>
<path d="M220.749 241.926C220.723 241.867 220.707 241.804 220.701 241.74C220.701 241.602 220.641 241.416 220.593 241.188C220.503 240.684 220.371 239.988 220.209 239.064C219.879 237.192 219.417 234.522 218.841 231.228C217.719 224.592 216.171 215.454 214.461 205.362C213.699 200.79 212.973 196.422 212.307 192.432L212.463 192.558L195.237 193.8L190.293 194.136L188.973 194.214H188.637H188.517H188.631L188.973 194.172L190.287 194.052L195.225 193.632L212.439 192.258H212.571V192.39C213.243 196.38 213.981 200.748 214.749 205.314C216.423 215.412 217.935 224.556 219.039 231.198C219.567 234.498 219.999 237.198 220.305 239.046L220.629 241.188C220.665 241.416 220.689 241.602 220.707 241.74C220.728 241.8 220.743 241.863 220.749 241.926Z" fill="#455A64"/>
<path d="M216.495 188.124C216.549 188.196 215.499 189.096 214.311 190.308C213.123 191.52 212.235 192.582 212.163 192.522C213.269 190.758 214.748 189.257 216.495 188.124Z" fill="#455A64"/>
<path d="M179.715 121.902C179.715 121.902 179.751 121.968 179.787 122.1C179.847 122.295 179.885 122.496 179.901 122.7C179.971 123.44 179.873 124.187 179.613 124.884C179.225 125.926 178.536 126.828 177.633 127.476C176.506 128.248 175.149 128.612 173.787 128.508C172.43 128.416 171.131 127.928 170.049 127.104C169.177 126.434 168.454 125.59 167.925 124.626C167.567 123.984 167.292 123.298 167.109 122.586C167.049 122.334 167.007 122.136 166.989 121.986C166.971 121.836 166.989 121.776 166.989 121.776C167.267 122.722 167.647 123.636 168.123 124.5C168.666 125.415 169.381 126.216 170.229 126.858C171.277 127.634 172.527 128.093 173.829 128.178C175.123 128.277 176.413 127.941 177.495 127.224C178.359 126.613 179.029 125.768 179.427 124.788C179.699 124.124 179.828 123.411 179.805 122.694C179.763 122.19 179.715 121.914 179.715 121.902Z" fill="#263238"/>
<path d="M188.181 148.104C188.113 147.91 188.068 147.709 188.049 147.504C187.983 147.03 187.905 146.454 187.809 145.788C187.611 144.258 187.353 142.29 187.071 140.112C186.789 137.934 186.585 135.912 186.471 134.424C186.405 133.698 186.363 133.104 186.339 132.696C186.31 132.485 186.31 132.271 186.339 132.06C186.402 132.255 186.444 132.456 186.465 132.66C186.531 133.134 186.609 133.704 186.699 134.376C186.891 135.906 187.137 137.874 187.407 140.052C187.677 142.23 187.911 144.252 188.055 145.734C188.121 146.466 188.169 147.054 188.199 147.468C188.218 147.68 188.212 147.893 188.181 148.104Z" fill="#263238"/>
</svg>
